<?xml version="1.0" encoding="UTF-8"?>
<svg width="104px" height="84px" viewBox="0 0 104 84" version="1.1" xmlns="http://www.w3.org/2000/svg" xmlns:xlink="http://www.w3.org/1999/xlink">
    <!-- Generator: Sketch 46.2 (44496) - http://www.bohemiancoding.com/sketch -->
    <title>business-12</title>
    <desc>Created with Sketch.</desc>
    <defs></defs>
    <g id="ALL" stroke="none" stroke-width="1" fill="none" fill-rule="evenodd" stroke-linecap="round" stroke-linejoin="round">
        <g id="Primary" transform="translate(-3067.000000, -11118.000000)" stroke="#28A745" stroke-width="3.5">
            <g id="Group-15" transform="translate(200.000000, 200.000000)">
                <g id="business-12" transform="translate(2869.000000, 10920.000000)">
                    <rect id="Layer-1" fill="#D8F8DF" x="0" y="0" width="100" height="60"></rect>
                    <path d="M20,50 L80,50 C80,44.4771525 84.4771525,40 90,40 L90,20 C84.4771525,20 80,15.5228475 80,10 L20,10 C20,15.5228475 15.5228475,20 10,20 L10,40 C15.5228475,40 20,44.4771525 20,50 L20,50 Z" id="Layer-2" fill="#D8F8DF"></path>
                    <path d="M20,50 L80,50 C80,44.4771525 84.4771525,40 90,40 L90,20 C84.4771525,20 80,15.5228475 80,10 L20,10 C20,15.5228475 15.5228475,20 10,20 L10,40 C15.5228475,40 20,44.4771525 20,50 L20,50 Z" id="Layer-6" fill="#D8F8DF"></path>
                    <ellipse id="Layer-3" fill="#FFFFFF" cx="50" cy="30" rx="15" ry="20"></ellipse>
                    <rect id="Layer-4" fill="#D8F8DF" x="0" y="60" width="100" height="10"></rect>
                    <rect id="Layer-5" fill="#D8F8DF" x="0" y="70" width="100" height="10"></rect>
                    <circle id="Layer-7" fill="#D8F8DF" cx="25" cy="30" r="3"></circle>
                    <circle id="Layer-8" fill="#D8F8DF" cx="75" cy="30" r="3"></circle>
                </g>
            </g>
        </g>
    </g>
</svg>