<?xml version="1.0" encoding="UTF-8"?>
<svg width="104px" height="104px" viewBox="0 0 104 104" version="1.1" xmlns="http://www.w3.org/2000/svg" xmlns:xlink="http://www.w3.org/1999/xlink">
    <!-- Generator: Sketch 46.2 (44496) - http://www.bohemiancoding.com/sketch -->
    <title>devices-31</title>
    <desc>Created with Sketch.</desc>
    <defs></defs>
    <g id="ALL" stroke="none" stroke-width="1" fill="none" fill-rule="evenodd" stroke-linecap="round" stroke-linejoin="round">
        <g id="Primary" transform="translate(-208.000000, -7782.000000)" stroke="#28A745" stroke-width="3.5">
            <g id="Group-15" transform="translate(200.000000, 200.000000)">
                <g id="devices-31" transform="translate(10.000000, 7584.000000)">
                    <rect id="Layer-1" fill="#D8F8DF" x="0" y="0" width="100" height="100" rx="6"></rect>
                    <path d="M32,80 C20.954305,80 12,66.5685425 12,50 C12,33.4314575 20.954305,20 32,20 L68,20 C79.045695,20 88,33.4314575 88,50 C88,66.5685425 79.045695,80 68,80 L32,80 L32,80 Z" id="Layer-2" fill="#FFFFFF"></path>
                    <rect id="Layer-3" fill="#D8F8DF" x="32" y="33" width="8" height="15"></rect>
                    <rect id="Layer-4" fill="#D8F8DF" x="60" y="33" width="8" height="15"></rect>
                    <path d="M45,63.0021863 C45,60.2395551 47.2441952,58 50,58 L50,58 C52.7614237,58 55,60.2289849 55,63.0021863 L55,70 L45,70 L45,63.0021863 Z" id="Layer-5" fill="#D8F8DF"></path>
                </g>
            </g>
        </g>
    </g>
</svg>