<?xml version="1.0" encoding="UTF-8"?>
<svg width="94px" height="114px" viewBox="0 0 94 114" version="1.1" xmlns="http://www.w3.org/2000/svg" xmlns:xlink="http://www.w3.org/1999/xlink">
    <!-- Generator: Sketch 46.2 (44496) - http://www.bohemiancoding.com/sketch -->
    <title>files-6</title>
    <desc>Created with Sketch.</desc>
    <defs></defs>
    <g id="ALL" stroke="none" stroke-width="1" fill="none" fill-rule="evenodd" stroke-linecap="round" stroke-linejoin="round">
        <g id="Primary" transform="translate(-3702.000000, -20541.000000)" stroke="#28A745" stroke-width="3.5">
            <g id="Group-15" transform="translate(200.000000, 200.000000)">
                <g id="files-6" transform="translate(3504.000000, 20343.000000)">
                    <path d="M60,0.23014612 L59.7695312,0 L0,0 L2.70108432e-07,100 L80,100 L80,20.2021484 L79.7975682,20 L60,20 L60,0.23014612 L60,0.23014612 L60,0.23014612 Z M60,100 C71.045695,100 80,91.045695 80,80 C80,68.954305 71.045695,60 60,60 C48.954305,60 40,68.954305 40,80 C40,91.045695 48.954305,100 60,100 L60,100 Z" id="Layer-1" fill="#D8F8DF"></path>
                    <polygon id="Layer-2" fill="#FFFFFF" points="60 0 80 20 60 20"></polygon>
                    <path d="M60,100 C71.045695,100 80,91.045695 80,80 C80,68.954305 71.045695,60 60,60 C48.954305,60 40,68.954305 40,80 C40,91.045695 48.954305,100 60,100 Z" id="Layer-3" fill="#FFFFFF"></path>
                    <path d="M90,110 L74.4919376,94.4919376" id="Layer-4" fill="#D8F8DF"></path>
                </g>
            </g>
        </g>
    </g>
</svg>