<?xml version="1.0" encoding="UTF-8"?>
<svg width="104px" height="104px" viewBox="0 0 104 104" version="1.1" xmlns="http://www.w3.org/2000/svg" xmlns:xlink="http://www.w3.org/1999/xlink">
    <!-- Generator: Sketch 46.2 (44496) - http://www.bohemiancoding.com/sketch -->
    <title>gaming-16</title>
    <desc>Created with Sketch.</desc>
    <defs></defs>
    <g id="ALL" stroke="none" stroke-width="1" fill="none" fill-rule="evenodd" stroke-linecap="round" stroke-linejoin="round">
        <g id="Primary" transform="translate(-1165.000000, -12653.000000)" stroke="#28A745" stroke-width="3.5">
            <g id="Group-15" transform="translate(200.000000, 200.000000)">
                <g id="gaming-16" transform="translate(967.000000, 12455.000000)">
                    <rect id="Layer-1" fill="#FFFFFF" x="0" y="0" width="100" height="100" rx="16"></rect>
                    <rect id="Layer-2" fill="#D8F8DF" transform="translate(35.750000, 86.500000) rotate(-270.000000) translate(-35.750000, -86.500000) " x="33.25" y="70.5" width="5" height="32" rx="2.5"></rect>
                    <circle id="Layer-3" fill="#D8F8DF" cx="68" cy="57" r="6"></circle>
                    <rect id="Layer-4" fill="#D8F8DF" x="10" y="10" width="10" height="10"></rect>
                    <rect id="Layer-5" fill="#D8F8DF" x="20" y="10" width="10" height="10"></rect>
                    <rect id="Layer-6" fill="#D8F8DF" x="50" y="10" width="10" height="10"></rect>
                    <rect id="Layer-7" fill="#D8F8DF" x="60" y="10" width="10" height="10"></rect>
                    <rect id="Layer-8" fill="#D8F8DF" x="70" y="10" width="10" height="10"></rect>
                    <rect id="Layer-9" fill="#D8F8DF" x="80" y="10" width="10" height="10"></rect>
                    <rect id="Layer-10" fill="#D8F8DF" x="10" y="20" width="10" height="10"></rect>
                    <rect id="Layer-11" fill="#D8F8DF" x="20" y="20" width="10" height="10"></rect>
                    <rect id="Layer-12" fill="#D8F8DF" x="50" y="20" width="10" height="10"></rect>
                    <rect id="Layer-13" fill="#D8F8DF" x="60" y="20" width="10" height="10"></rect>
                    <rect id="Layer-14" fill="#D8F8DF" x="80" y="20" width="10" height="10"></rect>
                    <rect id="Layer-15" fill="#D8F8DF" x="10" y="30" width="10" height="10"></rect>
                    <rect id="Layer-16" fill="#D8F8DF" x="50" y="30" width="10" height="10"></rect>
                    <rect id="Layer-17" fill="#D8F8DF" x="60" y="30" width="10" height="10"></rect>
                    <rect id="Layer-18" fill="#D8F8DF" x="80" y="30" width="10" height="10"></rect>
                    <path d="M46.3144364,76 L58.75,67.6121064" id="Layer-19" fill="#D8F8DF" transform="translate(52.532218, 71.806053) scale(-1, -1) translate(-52.532218, -71.806053) "></path>
                    <path d="M51.1176994,66.0856497 L53.6048121,64.408071" id="Layer-20" fill="#D8F8DF" transform="translate(52.361256, 65.246860) scale(-1, -1) translate(-52.361256, -65.246860) "></path>
                    <path d="M36.9128049,75.4836319 L46.0322182,69.33251" id="Layer-21" fill="#D8F8DF" transform="translate(41.472512, 72.408071) scale(-1, -1) translate(-41.472512, -72.408071) "></path>
                </g>
            </g>
        </g>
    </g>
</svg>