<?xml version="1.0" encoding="UTF-8"?>
<svg width="104px" height="104px" viewBox="0 0 104 104" version="1.1" xmlns="http://www.w3.org/2000/svg" xmlns:xlink="http://www.w3.org/1999/xlink">
    <!-- Generator: Sketch 46.2 (44496) - http://www.bohemiancoding.com/sketch -->
    <title>multimedia-21</title>
    <desc>Created with Sketch.</desc>
    <defs></defs>
    <g id="ALL" stroke="none" stroke-width="1" fill="none" fill-rule="evenodd" stroke-linecap="round" stroke-linejoin="round">
        <g id="Primary" transform="translate(-208.000000, -6281.000000)" stroke="#28A745" stroke-width="3.5">
            <g id="Group-15" transform="translate(200.000000, 200.000000)">
                <g id="multimedia-21" transform="translate(10.000000, 6083.000000)">
                    <path d="M100,50 C100,77.6142375 77.6142375,100 50,100 L50,0 C77.6142375,-4.4408921e-15 100,22.3857625 100,50 Z" id="Layer-1" fill="#D8F8DF"></path>
                    <path d="M50,0 C22.3857625,-4.4408921e-15 0,22.3857625 0,50 C0,77.6142375 22.3857625,100 50,100 L50,0 L50,0 Z" id="Layer-2" fill="#FFFFFF"></path>
                    <path d="M50,50 L99.5227203,50" id="Layer-3" fill="#D8F8DF"></path>
                    <path d="M51,20 L81,20" id="Layer-4" fill="#D8F8DF"></path>
                    <path d="M50,10 L78.504385,10" id="Layer-5" fill="#D8F8DF"></path>
                    <path d="M50,30 L94.5701675,30" id="Layer-6" fill="#D8F8DF"></path>
                    <path d="M50,40 L97.5026321,40" id="Layer-7" fill="#D8F8DF"></path>
                    <path d="M50,20 L88.5810852,20" id="Layer-8" fill="#D8F8DF"></path>
                    <path d="M50,90 L78.504385,90" id="Layer-9" fill="#D8F8DF"></path>
                    <path d="M50,70 L94.5701675,70" id="Layer-10" fill="#D8F8DF"></path>
                    <path d="M50,60 L97.5026321,60" id="Layer-11" fill="#D8F8DF"></path>
                    <path d="M50,80 L88.5810852,80" id="Layer-12" fill="#D8F8DF"></path>
                </g>
            </g>
        </g>
    </g>
</svg>