<?xml version="1.0" encoding="UTF-8"?>
<svg width="92px" height="104px" viewBox="0 0 92 104" version="1.1" xmlns="http://www.w3.org/2000/svg" xmlns:xlink="http://www.w3.org/1999/xlink">
    <!-- Generator: Sketch 46.2 (44496) - http://www.bohemiancoding.com/sketch -->
    <title>science-38</title>
    <desc>Created with Sketch.</desc>
    <defs></defs>
    <g id="ALL" stroke="none" stroke-width="1" fill="none" fill-rule="evenodd" stroke-linecap="round" stroke-linejoin="round">
        <g id="Primary" transform="translate(-531.000000, -5681.000000)" stroke="#28A745" stroke-width="3.5">
            <g id="Group-15" transform="translate(200.000000, 200.000000)">
                <g id="science-38" transform="translate(333.000000, 5483.000000)">
                    <ellipse id="Layer-1" fill="#FFFFFF" cx="33.4444444" cy="16.4835165" rx="16.6666667" ry="16.4835165"></ellipse>
                    <ellipse id="Layer-2" fill="#D8F8DF" cx="33.4444444" cy="16.4835165" rx="3.33333333" ry="3.2967033"></ellipse>
                    <path d="M29.2910623,32.451106 L8.50549393,89.5589857 L0.161555968,99.4890806 L0.152670631,86.5188066 L21.47029,27.9491287 C23.5755547,30.0992812 26.267585,31.684111 29.2910623,32.451106 L29.2910623,32.451106 Z" id="Layer-3" fill="#D8F8DF"></path>
                    <path d="M38.1236,32.3085546 L58.9610528,89.5589857 L67.3049907,99.4890806 L67.3138761,86.5188066 L45.8355175,27.5075015 C43.7922612,29.7524837 41.1342129,31.4392833 38.1236,32.3085546 L38.1236,32.3085546 Z" id="Layer-4" fill="#D8F8DF"></path>
                    <path d="M17.3333333,65.9340659 L87.3333333,65.9340659" id="Layer-5" fill="#D8F8DF"></path>
                    <path d="M78.4444444,61.5384615 L78.4444444,70.3296703" id="Layer-6" fill="#D8F8DF"></path>
                </g>
            </g>
        </g>
    </g>
</svg>