<?xml version="1.0" encoding="UTF-8"?>
<svg width="104px" height="99px" viewBox="0 0 104 99" version="1.1" xmlns="http://www.w3.org/2000/svg" xmlns:xlink="http://www.w3.org/1999/xlink">
    <!-- Generator: Sketch 46.2 (44496) - http://www.bohemiancoding.com/sketch -->
    <title>sports-50</title>
    <desc>Created with Sketch.</desc>
    <defs></defs>
    <g id="ALL" stroke="none" stroke-width="1" fill="none" fill-rule="evenodd" stroke-linecap="round" stroke-linejoin="round">
        <g id="Primary" transform="translate(-2432.000000, -9607.000000)" stroke="#28A745" stroke-width="3.5">
            <g id="Group-15" transform="translate(200.000000, 200.000000)">
                <g id="sports-50" transform="translate(2234.000000, 9409.000000)">
                    <path d="M32.2012055,72 C34.3479035,74.4409031 35.6517295,77.65494 35.6517295,81.176547 C35.6517295,88.8110293 29.5240357,95 21.9651424,95 C14.406249,95 8.27855519,88.8110293 8.27855519,81.176547 C8.27855519,77.65494 9.58238122,74.4409031 11.7290792,72 L32.2012055,72 L32.2012055,72 Z" id="Layer-1" fill="#FFFFFF"></path>
                    <path d="M86.1799686,72 C88.3266666,74.4409031 89.6304926,77.65494 89.6304926,81.176547 C89.6304926,88.8110293 83.5027988,95 75.9439055,95 C68.3850121,95 62.2573183,88.8110293 62.2573183,81.176547 C62.2573183,77.65494 63.5611443,74.4409031 65.7078423,72 L86.1799686,72 L86.1799686,72 Z" id="Layer-2" fill="#FFFFFF"></path>
                    <ellipse id="Layer-3" fill="#D8F8DF" cx="21.9651424" cy="81.3625152" rx="4.31932198" ry="4.3625152"></ellipse>
                    <path d="M0,72 L0,3.726 C0,1.7388 1.50357143,0 3.47142857,0 L39.1857143,0 C41.1571429,0 42.8571429,1.7388 43,3.726 L43,18.126 C42.8571429,19.0728 44.0357143,20.7144 44.1178571,20.7828 L72.6321429,49.41 C73.2964286,50.0796 74.2678571,50.4 75.2071429,50.4 L92.8571429,50.4 C96.4285714,50.5332 100,53.7516 100,57.726 L100,72 L0,72 Z" id="Layer-4" fill="#D8F8DF"></path>
                    <path d="M2,60.7913939 L100,60.7913939" id="Layer-5" fill="#D8F8DF"></path>
                    <ellipse id="Layer-6" fill="#D8F8DF" cx="75.9439055" cy="81.3625152" rx="4.31932198" ry="4.3625152"></ellipse>
                    <path d="M36.3766664,33.5706478 L45.4780408,24.3782596" id="Layer-7" fill="#D8F8DF"></path>
                    <path d="M43.487732,41.0706478 L53.2892122,31.1711528" id="Layer-8" fill="#D8F8DF"></path>
                    <path d="M51.134692,48.2170944 L60.9361722,38.3175995" id="Layer-9" fill="#D8F8DF"></path>
                    <rect id="Layer-10" fill="#FFFFFF" x="16.3115464" y="6.52351099" width="26.4603857" height="8"></rect>
                </g>
            </g>
        </g>
    </g>
</svg>