<?xml version="1.0" encoding="UTF-8"?>
<svg width="104px" height="104px" viewBox="0 0 104 104" version="1.1" xmlns="http://www.w3.org/2000/svg" xmlns:xlink="http://www.w3.org/1999/xlink">
    <!-- Generator: Sketch 46.2 (44496) - http://www.bohemiancoding.com/sketch -->
    <title>sports-12</title>
    <desc>Created with Sketch.</desc>
    <defs></defs>
    <g id="ALL" stroke="none" stroke-width="1" fill="none" fill-rule="evenodd" stroke-linecap="round" stroke-linejoin="round">
        <g id="Primary" transform="translate(-1797.000000, -8705.000000)" stroke="#28A745" stroke-width="3.5">
            <g id="Group-15" transform="translate(200.000000, 200.000000)">
                <g id="sports-12" transform="translate(1599.000000, 8507.000000)">
                    <rect id="Layer-1" fill="#FFFFFF" x="26" y="35.0644343" width="48" height="30.9369793"></rect>
                    <path d="M73.5576923,66.003641 L73.5576923,37.9947159 C73.5576923,36.6498003 72.4814904,35.5591572 71.1538462,35.5591572 L28.8461538,35.5591572 C27.5185096,35.5591572 26.4423077,36.6498003 26.4423077,37.9947159 L26.4423077,66.003641 L5.00468226,66.003641 C2.24067257,66.003641 0,63.7702619 0,61.0048216 L0,31.0544265 C0,28.2936548 1.56996103,24.4649344 3.5083957,22.5009271 L22.2079504,3.55467994 C24.1455839,1.59148442 27.9614431,0 30.7082958,0 L69.2917042,0 C72.0486818,0 75.8536149,1.59067262 77.7920496,3.55467994 L96.4916043,22.5009271 C98.4292377,24.4641227 100,28.2889862 100,31.0544265 L100,61.0048216 C100,63.7655933 97.7683327,66.003641 94.9953177,66.003641 L73.5576923,66.003641 Z" id="Layer-2" fill="#D8F8DF"></path>
                    <path d="M32,73 L67,73 L65,84 C65,84 62.2871094,91 50,91 C37.7128906,91 34,84 34,84 L32,73 Z" id="Layer-3" fill="#D8F8DF"></path>
                    <path d="M65,84 L62.031284,99.722173 L65,84 Z" id="Layer-4" fill="#D8F8DF"></path>
                    <polygon id="Layer-5" fill="#D8F8DF" points="34 84 36.968716 99.722173"></polygon>
                    <ellipse id="Layer-6" fill="#D8F8DF" cx="49.5" cy="72.5" rx="17.5" ry="6.5"></ellipse>
                    <path d="M56.2020773,79.0629982 L54.0069796,99.947958" id="Layer-7" fill="#D8F8DF"></path>
                    <path d="M42.7979227,79.0629982 L44.9930204,99.947958" id="Layer-8" fill="#D8F8DF"></path>
                </g>
            </g>
        </g>
    </g>
</svg>