<?xml version="1.0" encoding="UTF-8"?>
<svg width="109px" height="109px" viewBox="0 0 109 109" version="1.1" xmlns="http://www.w3.org/2000/svg" xmlns:xlink="http://www.w3.org/1999/xlink">
    <!-- Generator: Sketch 46.2 (44496) - http://www.bohemiancoding.com/sketch -->
    <title>business-16</title>
    <desc>Created with Sketch.</desc>
    <defs></defs>
    <g id="ALL" stroke="none" stroke-width="1" fill="none" fill-rule="evenodd" stroke-linecap="round" stroke-linejoin="round">
        <g id="Primary" transform="translate(-522.000000, -11428.000000)" stroke="#17A2B8" stroke-width="3.5">
            <g id="Group-15" transform="translate(200.000000, 200.000000)">
                <g id="business-16" transform="translate(324.000000, 11230.000000)">
                    <path d="M105.113894,59.9535356 L95.1085231,59.9535356 C86.4683863,59.9535356 79.6495387,52.2120734 75.0274684,46.5639558 C70.0544183,40.486945 67.5955246,39.1695249 65.0762965,38.5706076 C62.4463608,37.9453708 59.7714957,38.2113494 55.1138942,39.9200323 C45.9947535,43.2654708 42.1202418,35.1444677 34.8936793,27.5722338 C27.6671168,20 20.4678639,20 15.4512965,20 L5.11389416,20 L5.11389416,100 L105.113894,100 L105.113894,59.9535356 L105.113894,59.9535356 Z" id="Layer-1" fill="#DBEEF1"></path>
                    <polyline id="Layer-2" points="105.113894 100 5.11389416 100 5.11389416 0 5.11389416 0"></polyline>
                    <path d="M5.11389416,10 L0.113894156,10" id="Layer-3" fill="#DBEEF1"></path>
                    <path d="M5.11389416,30 L0.113894156,30" id="Layer-4" fill="#DBEEF1"></path>
                    <path d="M5.11389416,50 L0.113894156,50" id="Layer-5" fill="#DBEEF1"></path>
                    <path d="M5.11389416,70 L0.113894156,70" id="Layer-6" fill="#DBEEF1"></path>
                    <path d="M5.11389416,90 L0.113894156,90" id="Layer-7" fill="#DBEEF1"></path>
                    <path d="M95.1138942,105 L95.1138942,100" id="Layer-8" fill="#DBEEF1"></path>
                    <path d="M75.1138942,105 L75.1138942,100" id="Layer-9" fill="#DBEEF1"></path>
                    <path d="M55.1138942,105 L55.1138942,100" id="Layer-10" fill="#DBEEF1"></path>
                    <path d="M35.1138942,105 L35.1138942,100" id="Layer-11" fill="#DBEEF1"></path>
                    <path d="M15.1138942,105 L15.1138942,100" id="Layer-12" fill="#DBEEF1"></path>
                </g>
            </g>
        </g>
    </g>
</svg>