<?xml version="1.0" encoding="UTF-8"?>
<svg width="104px" height="104px" viewBox="0 0 104 104" version="1.1" xmlns="http://www.w3.org/2000/svg" xmlns:xlink="http://www.w3.org/1999/xlink">
    <!-- Generator: Sketch 46.2 (44496) - http://www.bohemiancoding.com/sketch -->
    <title>devices-50</title>
    <desc>Created with Sketch.</desc>
    <defs></defs>
    <g id="ALL" stroke="none" stroke-width="1" fill="none" fill-rule="evenodd" stroke-linecap="round" stroke-linejoin="round">
        <g id="Primary" transform="translate(-2432.000000, -8104.000000)" stroke="#17A2B8" stroke-width="3.5">
            <g id="Group-15" transform="translate(200.000000, 200.000000)">
                <g id="devices-50" transform="translate(2234.000000, 7906.000000)">
                    <path d="M0,2.99280137 C0,1.33992281 1.34747995,0 3.00283888,0 L82.7823174,0 C84.4407395,0 86.7178319,0.955037773 87.8826054,2.14773836 L97.9025509,12.4079257 C99.06094,13.5940888 100,15.8977905 100,17.5465728 L100,97.0090913 C100,98.6609245 98.6619875,100 97.0071986,100 L2.99280137,100 C1.33992281,100 0,98.6619875 0,97.0071986 L0,2.99280137 Z" id="Layer-1" fill="#DBEEF1"></path>
                    <rect id="Layer-2" fill="#FFFFFF" x="20" y="50" width="60" height="50"></rect>
                    <rect id="Layer-3" fill="#FFFFFF" x="25" y="0" width="50" height="30"></rect>
                    <path d="M30,85 L70,85" id="Layer-4" fill="#DBEEF1"></path>
                    <path d="M30,75 L70,75" id="Layer-5" fill="#DBEEF1"></path>
                    <path d="M30,65 L70,65" id="Layer-6" fill="#DBEEF1"></path>
                    <rect id="Layer-7" fill="#DBEEF1" x="60" y="7" width="8" height="16"></rect>
                    <path d="M10,10 L10,20" id="Layer-8" fill="#DBEEF1"></path>
                </g>
            </g>
        </g>
    </g>
</svg>