<?xml version="1.0" encoding="UTF-8"?>
<svg width="114px" height="104px" viewBox="0 0 114 104" version="1.1" xmlns="http://www.w3.org/2000/svg" xmlns:xlink="http://www.w3.org/1999/xlink">
    <!-- Generator: Sketch 46.2 (44496) - http://www.bohemiancoding.com/sketch -->
    <title>files-23</title>
    <desc>Created with Sketch.</desc>
    <defs></defs>
    <g id="ALL" stroke="none" stroke-width="1" fill="none" fill-rule="evenodd" stroke-linecap="round" stroke-linejoin="round">
        <g id="Primary" transform="translate(-1477.000000, -21162.000000)" stroke="#17A2B8" stroke-width="3.5">
            <g id="Group-15" transform="translate(200.000000, 200.000000)">
                <g id="files-23" transform="translate(1279.000000, 20964.000000)">
                    <path d="M100,54.9981691 L100,2.99446106 C100,1.34209558 98.6600772,0 97.0071986,0 L2.99280137,0 C1.33801252,0 0,1.34066588 0,2.99446106 L0,87.0055389 C0,88.6579044 1.33992281,90 2.99280137,90 L64.9981691,90 C61.8597241,85.8216973 60,80.6280296 60,75 C60,61.1928813 71.1928813,50 85,50 C90.6280296,50 95.8216973,51.8597241 100,54.9981691 L100,54.9981691 Z" id="Layer-1" fill="#DBEEF1"></path>
                    <path d="M0,3.00947762 C0,1.34738902 1.33801252,0 2.99280137,0 L97.0071986,0 C98.6600772,0 100,1.33663106 100,3.00947762 L100,16 L0,16 L0,3.00947762 Z" id="Layer-2" fill="#DBEEF1"></path>
                    <path d="M7,8 L22.2800007,8" id="Layer-3" fill="#DBEEF1"></path>
                    <circle id="Layer-5" fill="#FFFFFF" cx="85" cy="75" r="25"></circle>
                    <path d="M99,75 L72,75" id="Layer-6" fill="#DBEEF1"></path>
                </g>
            </g>
        </g>
    </g>
</svg>