<?xml version="1.0" encoding="UTF-8"?>
<svg width="104px" height="104px" viewBox="0 0 104 104" version="1.1" xmlns="http://www.w3.org/2000/svg" xmlns:xlink="http://www.w3.org/1999/xlink">
    <!-- Generator: Sketch 46.2 (44496) - http://www.bohemiancoding.com/sketch -->
    <title>food-60</title>
    <desc>Created with Sketch.</desc>
    <defs></defs>
    <g id="ALL" stroke="none" stroke-width="1" fill="none" fill-rule="evenodd" stroke-linecap="round" stroke-linejoin="round">
        <g id="Primary" transform="translate(-525.000000, -15066.000000)" stroke="#17A2B8" stroke-width="3.5">
            <g id="Group-15" transform="translate(200.000000, 200.000000)">
                <g id="food-60" transform="translate(327.000000, 14868.000000)">
                    <path d="M99.9385882,52 C98.6360177,78.4527861 76.7759308,99.5000154 50,99.5000154 C23.2240744,99.5000154 1.36399078,78.4527943 0.0614125157,52.0000154 L0.0392695779,52.0000154 C0.013171484,51.3365832 0,50.6698298 0,50 C0,49.9166214 0.000204086765,49.8332905 0.000611787999,49.7500077 C0.000204086765,49.6667249 0,49.583394 0,49.5000154 C0,48.8301856 0.013171484,48.1634322 0.0392695779,47.5 L0.0614125157,47.5 C1.36399078,21.0472212 23.2240744,0 50,0 C76.7759308,0 98.6360177,21.0472293 99.9385882,47.5000154 L99.960731,47.5000154 L99.9607304,47.5 C99.9868285,48.1634322 100,48.8301856 100,49.5000154 C100,49.583394 99.9997959,49.6667249 99.9993882,49.7500077 C99.9997959,49.8332905 100,49.9166214 100,50 C100,50.6698298 99.9868285,51.3365832 99.9607304,52.0000154 L99.960731,52 L99.9385882,52 Z M69.9984696,49.7500077 C69.8645796,38.8195151 60.9622439,30 50,30 C39.0377561,30 30.1354204,38.8195151 30.0015304,49.7500077 C30.1354204,60.6805003 39.0377561,69.5000154 50,69.5000154 C60.9622439,69.5000154 69.8645796,60.6805003 69.9984696,49.7500077 Z" id="Layer-1" fill="#FFFFFF"></path>
                    <path d="M100,50 C100,22.3857625 77.6142375,0 50,0 C22.3857625,0 0,22.3857625 0,50 C0,50.6698298 0.013171484,51.3365832 0.0392695779,52.0000154 C0.0392695779,52.0000154 5.86377196,47.0787186 14.5325338,47.0787186 C23.2012957,47.0787186 30.0987505,52 30.0987505,52 C30.0334389,51.3421875 30,50.6749988 30,50 C30,38.954305 38.954305,30 50,30 C61.045695,30 70,38.954305 70,50 C70,50.6749988 69.9665611,51.3421875 69.9012495,52 C69.9012495,52 78.6259495,56.4777386 86.0565574,56.4777386 C93.4871654,56.4777386 99.960731,52 99.960731,52 C99.9868285,51.3365832 100,50.6698298 100,50 Z" id="Layer-2" fill="#DBEEF1"></path>
                    <path d="M12.8741696,34.6529616 L20.3680738,30.3413146 C21.702594,29.5200113 23.550331,30.0332281 24.3716344,31.4704438 C25.1929377,32.9076594 24.6797209,34.652701 23.3452007,35.4740043 L15.8512965,39.7856513 C14.5167763,40.6069546 12.6690393,40.0937378 11.847736,38.6565221 C11.026172,37.2195671 11.5396495,35.3713088 12.8741696,34.6529616 L12.8741696,34.6529616 Z" id="Layer-3" fill="#DBEEF1" transform="translate(18.109627, 35.063483) scale(-1, 1) rotate(-165.000000) translate(-18.109627, -35.063483) "></path>
                    <path d="M65.6033787,19.0843099 L73.0972829,14.7726629 C74.4318031,13.9513595 76.2795401,14.4645764 77.1008434,15.9017921 C77.9221468,17.3390077 77.4089299,19.0840492 76.0744098,19.9053526 L68.5805056,24.2169996 C67.2459854,25.0383029 65.3982484,24.5250861 64.576945,23.0878704 C63.755381,21.6509154 64.2688585,19.8026571 65.6033787,19.0843099 L65.6033787,19.0843099 Z" id="Layer-4" fill="#DBEEF1"></path>
                    <path d="M24.9785278,19.0843099 L32.472432,14.7726629 C33.8069522,13.9513595 35.6546892,14.4645764 36.4759925,15.9017921 C37.2972959,17.3390077 36.784079,19.0840492 35.4495588,19.9053526 L27.9556546,24.2169996 C26.6211345,25.0383029 24.7733974,24.5250861 23.9520941,23.0878704 C23.1305301,21.6509154 23.6440076,19.8026571 24.9785278,19.0843099 L24.9785278,19.0843099 Z" id="Layer-5" fill="#DBEEF1" transform="translate(30.213985, 19.494831) scale(-1, 1) rotate(-60.000000) translate(-30.213985, -19.494831) "></path>
                    <path d="M45.4156964,13.9121761 L52.9096006,9.60052911 C54.2441208,8.77922578 56.0918578,9.29244262 56.9131611,10.7296583 C57.7344645,12.166874 57.2212476,13.9119155 55.8867274,14.7332188 L48.3928232,19.0448658 C47.0583031,19.8661692 45.2105661,19.3529523 44.3892627,17.9157366 C43.5676987,16.4787816 44.0811762,14.6305233 45.4156964,13.9121761 L45.4156964,13.9121761 Z" id="Layer-6" fill="#DBEEF1" transform="translate(50.651154, 14.322697) scale(-1, 1) rotate(-120.000000) translate(-50.651154, -14.322697) "></path>
                    <path d="M78.7691235,38.0511031 L86.2630277,33.7394561 C87.5975478,32.9181528 89.4452849,33.4313696 90.2665882,34.8685853 C91.0878915,36.305801 90.5746747,38.0508425 89.2401545,38.8721458 L81.7462503,43.1837928 C80.4117301,44.0050962 78.5639931,43.4918793 77.7426898,42.0546637 C76.9211258,40.6177086 77.4346033,38.7694503 78.7691235,38.0511031 L78.7691235,38.0511031 Z" id="Layer-7" fill="#DBEEF1" transform="translate(84.004581, 38.461624) scale(-1, 1) rotate(-165.000000) translate(-84.004581, -38.461624) "></path>
                </g>
            </g>
        </g>
    </g>
</svg>