<?xml version="1.0" encoding="UTF-8"?>
<svg width="104px" height="103px" viewBox="0 0 104 103" version="1.1" xmlns="http://www.w3.org/2000/svg" xmlns:xlink="http://www.w3.org/1999/xlink">
    <!-- Generator: Sketch 46.2 (44496) - http://www.bohemiancoding.com/sketch -->
    <title>holidays-50</title>
    <desc>Created with Sketch.</desc>
    <defs></defs>
    <g id="ALL" stroke="none" stroke-width="1" fill="none" fill-rule="evenodd" stroke-linecap="round" stroke-linejoin="round">
        <g id="Primary" transform="translate(-3697.000000, -18126.000000)" stroke="#17A2B8" stroke-width="3.5">
            <g id="Group-15" transform="translate(200.000000, 200.000000)">
                <g id="holidays-50" transform="translate(3499.000000, 17928.000000)">
                    <path d="M14.143196,67.1909232 L14.143196,103.680239" id="Layer-1" fill="#DBEEF1" transform="translate(14.643196, 85.190923) rotate(-315.000000) translate(-14.643196, -85.190923) "></path>
                    <rect id="Layer-2" fill="#DBEEF1" transform="translate(50.033009, 49.162951) rotate(-315.000000) translate(-50.033009, -49.162951) " x="44.0330086" y="18.1629509" width="12" height="62" rx="6"></rect>
                    <path d="M63.8111832,60.5943186 L63.8111832,27.3859313 C63.8111832,24.068739 61.1248917,21.3847763 57.8111832,21.3847763 C54.5042174,21.3847763 51.8111832,24.0715849 51.8111832,27.3859313 L51.8111832,60.5943186 C53.7240035,61.1098113 55.7354826,61.3847763 57.8111832,61.3847763 C59.8868838,61.3847763 61.8983628,61.1098113 63.8111832,60.5943186 L63.8111832,60.5943186 Z" id="Layer-3" fill="#FFFFFF" transform="translate(57.811183, 41.384776) rotate(-315.000000) translate(-57.811183, -41.384776) "></path>
                    <path d="M54.3685453,53.3126955 C55.4768892,53.0148256 56.5952733,52.7644326 57.720497,52.5615166 C61.1705467,57.5288479 63.5460353,63.3002177 64.5120193,69.5406824 C64.605341,70.1531059 65.3810774,70.1531059 65.4802316,69.5406824 C66.446229,63.3001317 68.8217697,57.5286889 72.2718965,52.5613112 C78.2232064,53.6343607 83.9832182,56.0354966 89.0784021,59.7647189 C89.5774393,60.1317793 90.1259677,59.5832508 89.7630316,59.0800894 C86.0339334,53.9850749 83.6328332,48.2252768 82.559731,42.2741776 C87.5265914,38.8249128 93.2972179,36.4499548 99.5368079,35.4841062 C100.149231,35.3907845 100.149231,34.6150481 99.5368079,34.5158938 C93.2970104,33.5500131 87.5262076,31.1749292 82.5592343,27.7254847 C83.632092,21.7734079 86.0333578,16.0126182 89.7630316,10.9168174 C90.130092,10.4177802 89.5815636,9.86925178 89.0784021,10.2321879 C83.9826733,13.9618089 78.2219745,16.3630596 72.2699873,17.4359397 C68.8208934,12.4691818 66.4460508,6.69871713 65.4802316,0.459317585 C65.38691,-0.153105862 64.6111736,-0.153105862 64.5120193,0.459317585 C63.5462135,6.69863117 61.171423,12.4690229 57.7224062,17.4357345 C51.770823,16.3627533 46.0105339,13.9615711 40.9151301,10.2321879 C40.4202172,9.86925178 39.8675645,10.4219045 40.2305006,10.9168174 C43.9600079,16.0123907 46.3612257,21.7728935 47.4341542,27.7246874 C42.4669254,31.1745662 36.6957174,33.5499393 30.4554431,34.5158938 C29.8488522,34.6092155 29.8488522,35.3907845 30.4554431,35.4841062 C36.6955098,36.4500286 42.4665415,38.8252758 47.4336586,42.2749684 L47.4336586,42.2749684 C47.3585181,42.6916277 47.2768679,43.1073492 47.1887078,43.5219703 L63.4672207,27.2434574 C65.8108175,24.8998606 69.6149409,24.9042628 71.9533188,27.2426407 C74.2964646,29.5857864 74.2981113,33.3831296 71.9525021,35.7287388 L54.3685453,53.3126955 Z" id="Layer-4" fill="#DBEEF1"></path>
                    <path d="M0.155980502,12.1659793 C6.1632296,13.095863 10.9026372,17.8352706 11.8325209,23.8425197 C11.8645169,24.0524934 12.1304837,24.0524934 12.1644794,23.8425197 C13.0943632,17.8352706 17.8337708,13.095863 23.8410199,12.1659793 C24.0509936,12.1339833 24.0509936,11.8680165 23.8410199,11.8340207 C17.8337708,10.904137 13.0943632,6.16472941 12.1644794,0.157480315 C12.1324834,-0.0524934383 11.8665167,-0.0524934383 11.8325209,0.157480315 C10.9026372,6.16472941 6.1632296,10.904137 0.155980502,11.8340207 C-0.0519935008,11.8660167 -0.0519935008,12.1339833 0.155980502,12.1659793 L0.155980502,12.1659793 Z" id="Layer-5" fill="#FFFFFF"></path>
                    <path d="M67.1429911,88.1528446 C72.6499802,89.0052913 76.9947087,93.3500198 77.8471554,98.8570089 C77.8764869,99.0494969 78.120305,99.0494969 78.1514697,98.8570089 C79.0039164,93.3500198 83.3486449,89.0052913 88.855634,88.1528446 C89.048122,88.1235131 89.048122,87.879695 88.855634,87.8485303 C83.3486449,86.9960836 79.0039164,82.6513551 78.1514697,77.144366 C78.1221382,76.951878 77.8783201,76.951878 77.8471554,77.144366 C76.9947087,82.6513551 72.6499802,86.9960836 67.1429911,87.8485303 C66.9523363,87.8778618 66.9523363,88.1235131 67.1429911,88.1528446 L67.1429911,88.1528446 Z" id="Layer-6" fill="#FFFFFF"></path>
                    <path d="M0.110493094,54.6181072 C4.3658938,55.276816 7.72318397,58.6341062 8.3818928,62.8895069 C8.40455805,63.0382476 8.59296294,63.0382476 8.61704477,62.8895069 C9.2757536,58.6341062 12.6330438,55.276816 16.8884445,54.6181072 C17.0371852,54.595442 17.0371852,54.4070371 16.8884445,54.3829552 C12.6330438,53.7242464 9.2757536,50.3669562 8.61704477,46.1115555 C8.59437952,45.9628148 8.40597463,45.9628148 8.3818928,46.1115555 C7.72318397,50.3669562 4.3658938,53.7242464 0.110493094,54.3829552 C-0.0368310314,54.4056205 -0.0368310314,54.595442 0.110493094,54.6181072 L0.110493094,54.6181072 Z" id="Layer-7" fill="#FFFFFF"></path>
                </g>
            </g>
        </g>
    </g>
</svg>