<?xml version="1.0" encoding="UTF-8"?>
<svg width="104px" height="104px" viewBox="0 0 104 104" version="1.1" xmlns="http://www.w3.org/2000/svg" xmlns:xlink="http://www.w3.org/1999/xlink">
    <!-- Generator: Sketch 46.2 (44496) - http://www.bohemiancoding.com/sketch -->
    <title>layouts-27</title>
    <desc>Created with Sketch.</desc>
    <defs></defs>
    <g id="ALL" stroke="none" stroke-width="1" fill="none" fill-rule="evenodd" stroke-linecap="round" stroke-linejoin="round">
        <g id="Primary" transform="translate(-208.000000, -23865.000000)" stroke="#17A2B8" stroke-width="3.5" fill="#DBEEF1">
            <g id="Group-15" transform="translate(200.000000, 200.000000)">
                <g id="layouts-27" transform="translate(10.000000, 23667.000000)">
                    <path d="M0,1.99753791 C0,0.894328186 0.89784041,0 1.99161703,0 L30,0 L30,100 L1.99161703,100 C0.891677316,100 0,99.1049485 0,98.0024621 L0,1.99753791 Z" id="Layer-1"></path>
                    <path d="M30,0 L97.9992008,0 C99.1042117,0 100,0.889064278 100,1.99091407 L100,50 L30,50 L30,0 Z" id="Layer-2"></path>
                    <path d="M30,50 L97.9992008,50 C99.1042117,50 100,50.8890643 100,51.9909141 L100,100 L30,100 L30,50 Z" id="Layer-3" transform="translate(65.000000, 75.000000) scale(1, -1) translate(-65.000000, -75.000000) "></path>
                </g>
            </g>
        </g>
    </g>
</svg>