<?xml version="1.0" encoding="UTF-8"?>
<svg width="104px" height="104px" viewBox="0 0 104 104" version="1.1" xmlns="http://www.w3.org/2000/svg" xmlns:xlink="http://www.w3.org/1999/xlink">
    <!-- Generator: Sketch 46.2 (44496) - http://www.bohemiancoding.com/sketch -->
    <title>multimedia-50</title>
    <desc>Created with Sketch.</desc>
    <defs></defs>
    <g id="ALL" stroke="none" stroke-width="1" fill="none" fill-rule="evenodd" stroke-linecap="round" stroke-linejoin="round">
        <g id="Primary" transform="translate(-1797.000000, -6882.000000)" stroke="#17A2B8" stroke-width="3.5">
            <g id="Group-15" transform="translate(200.000000, 200.000000)">
                <g id="multimedia-50" transform="translate(1599.000000, 6684.000000)">
                    <circle id="Layer-1" fill="#DBEEF1" cx="50" cy="50" r="50"></circle>
                    <path d="M50.315918,50.9160156 L47.6176758,42.5 C46.2752571,38.3578644 40.7110735,35 35.1870117,35 L22,35" id="Layer-2" fill="#DBEEF1"></path>
                    <path d="M50,50 L52.4306641,57.5 C53.7730828,61.6421356 59.3372663,65 64.8613281,65 L74.8613281,65" id="Layer-3" fill="#DBEEF1"></path>
                    <path d="M46.4071159,60 C44.122084,62.9883429 39.6694969,65.1447465 35.2426757,65.1447465 L22,65.1447465" id="Layer-4" fill="#DBEEF1"></path>
                    <path d="M54,39.9039153 C56.3357877,37.0412346 60.6671632,35 64.9741488,35 L74.9741488,35" id="Layer-5" fill="#DBEEF1"></path>
                    <polyline id="Layer-6" points="70 59 80 65 70 71"></polyline>
                    <polyline id="Layer-7" points="70 29 80 35 70 41"></polyline>
                </g>
            </g>
        </g>
    </g>
</svg>