<?xml version="1.0" encoding="UTF-8"?>
<svg width="104px" height="104px" viewBox="0 0 104 104" version="1.1" xmlns="http://www.w3.org/2000/svg" xmlns:xlink="http://www.w3.org/1999/xlink">
    <!-- Generator: Sketch 46.2 (44496) - http://www.bohemiancoding.com/sketch -->
    <title>numbers-20</title>
    <desc>Created with Sketch.</desc>
    <defs></defs>
    <g id="ALL" stroke="none" stroke-width="1" fill="none" fill-rule="evenodd" stroke-linecap="round" stroke-linejoin="round">
        <g id="Primary" transform="translate(-2432.000000, -24768.000000)" stroke="#17A2B8" stroke-width="3.5" fill="#DBEEF1">
            <g id="Group-15" transform="translate(200.000000, 200.000000)">
                <g id="numbers-20" transform="translate(2234.000000, 24570.000000)">
                    <path d="M50,100 C77.6142375,100 100,77.6142375 100,50 C100,22.3857625 77.6142375,0 50,0 C22.3857625,0 0,22.3857625 0,50 C0,77.6142375 22.3857625,100 50,100 Z" id="Layer-1"></path>
                    <path d="M35,58.0965909 L35.0710227,60.2272727 C35.4261364,70.2414773 40.3977273,75 48.6363636,75 C57.5852273,75 61.5625,68.5369318 61.9886364,62.0028409 C62.1306818,59.7301136 62.1306818,57.7414773 62.1306818,55.5397727 L62.1306818,25 L62.1306818,25" id="Layer-2"></path>
                </g>
            </g>
        </g>
    </g>
</svg>