<?xml version="1.0" encoding="UTF-8"?>
<svg width="104px" height="84px" viewBox="0 0 104 84" version="1.1" xmlns="http://www.w3.org/2000/svg" xmlns:xlink="http://www.w3.org/1999/xlink">
    <!-- Generator: Sketch 46.2 (44496) - http://www.bohemiancoding.com/sketch -->
    <title>science-15</title>
    <desc>Created with Sketch.</desc>
    <defs></defs>
    <g id="ALL" stroke="none" stroke-width="1" fill="none" fill-rule="evenodd" stroke-linecap="round" stroke-linejoin="round">
        <g id="Primary" transform="translate(-843.000000, -5079.000000)" stroke="#17A2B8" stroke-width="3.5">
            <g id="Group-15" transform="translate(200.000000, 200.000000)">
                <g id="science-15" transform="translate(645.000000, 4881.000000)">
                    <rect id="Layer-1" fill="#DBEEF1" x="0" y="50" width="100" height="30" rx="15"></rect>
                    <path d="M85,50 C85,30.6700338 69.3299662,15 50,15 C30.6700338,15 15,30.6700338 15,50 L85,50 Z" id="Layer-2" fill="#DBEEF1"></path>
                    <path d="M44.1311677,22.6160531 C39.5918911,23.5841844 35.4599426,25.6523961 32.0277384,28.528272 M28.4978553,32.0641012 C27.6695156,33.0560694 26.9085335,34.1062343 26.2219382,35.207567" id="Layer-3" fill="#DBEEF1"></path>
                    <path d="M50,14 L50,6" id="Layer-4" fill="#DBEEF1"></path>
                    <circle id="Layer-5" fill="#DBEEF1" cx="50" cy="3" r="3"></circle>
                    <circle id="Layer-6" fill="#FFFFFF" cx="20" cy="65" r="5"></circle>
                    <circle id="Layer-7" fill="#FFFFFF" cx="50" cy="65" r="5"></circle>
                    <circle id="Layer-8" fill="#FFFFFF" cx="80" cy="65" r="5"></circle>
                </g>
            </g>
        </g>
    </g>
</svg>