<?xml version="1.0" encoding="UTF-8"?>
<svg width="104px" height="104px" viewBox="0 0 104 104" version="1.1" xmlns="http://www.w3.org/2000/svg" xmlns:xlink="http://www.w3.org/1999/xlink">
    <!-- Generator: Sketch 46.2 (44496) - http://www.bohemiancoding.com/sketch -->
    <title>baby-27</title>
    <desc>Created with Sketch.</desc>
    <defs></defs>
    <g id="ALL" stroke="none" stroke-width="1" fill="none" fill-rule="evenodd" stroke-linecap="round" stroke-linejoin="round">
        <g id="Primary" transform="translate(-1482.000000, -20233.000000)" stroke-width="3.5" stroke="#FFC107">
            <g id="Group-15" transform="translate(200.000000, 200.000000)">
                <g id="baby-27" transform="translate(1284.000000, 20035.000000)">
                    <g id="Group">
                        <rect id="Layer-1" fill="#FFF9E6" x="0" y="0" width="12" height="100" rx="2"></rect>
                        <rect id="Layer-2" fill="#FFF9E6" x="88" y="0" width="12" height="100" rx="2"></rect>
                        <path d="M13.5,80 L49.5,80" id="Layer-3" fill="#FFF9E6"></path>
                        <path d="M70.5,80 L87.5,80" id="Layer-4" fill="#FFF9E6"></path>
                        <path d="M12.5,60 L28.5,60" id="Layer-5" fill="#FFF9E6"></path>
                        <path d="M40.5,60 L87.5,60" id="Layer-6" fill="#FFF9E6"></path>
                        <path d="M13.5,40 L59.5,40" id="Layer-7" fill="#FFF9E6"></path>
                        <path d="M70.5,40 L86.5,40" id="Layer-8" fill="#FFF9E6"></path>
                        <path d="M13.5,20 L29.5,20" id="Layer-9" fill="#FFF9E6"></path>
                        <path d="M40.5,20 L87.5,20" id="Layer-10" fill="#FFF9E6"></path>
                        <rect id="Layer-11" fill="#FFFFFF" x="30" y="10" width="10" height="20" rx="5"></rect>
                        <rect id="Layer-12" fill="#FFFFFF" x="60" y="30" width="10" height="20" rx="5"></rect>
                        <rect id="Layer-13" fill="#FFFFFF" x="30" y="50" width="10" height="20" rx="5"></rect>
                        <rect id="Layer-14" fill="#FFFFFF" x="50" y="70" width="10" height="20" rx="5"></rect>
                        <rect id="Layer-15" fill="#FFFFFF" x="60" y="70" width="10" height="20" rx="5"></rect>
                    </g>
                </g>
            </g>
        </g>
    </g>
</svg>