<?xml version="1.0" encoding="UTF-8"?>
<svg width="104px" height="104px" viewBox="0 0 104 104" version="1.1" xmlns="http://www.w3.org/2000/svg" xmlns:xlink="http://www.w3.org/1999/xlink">
    <!-- Generator: Sketch 46.2 (44496) - http://www.bohemiancoding.com/sketch -->
    <title>business-50</title>
    <desc>Created with Sketch.</desc>
    <defs></defs>
    <g id="ALL" stroke="none" stroke-width="1" fill="none" fill-rule="evenodd" stroke-linecap="round" stroke-linejoin="round">
        <g id="Primary" transform="translate(-3697.000000, -12044.000000)" stroke="#FFC107" stroke-width="3.5">
            <g id="Group-15" transform="translate(200.000000, 200.000000)">
                <g id="business-50" transform="translate(3498.000000, 11845.000000)">
                    <path d="M58.1997523,43.9141419 C62.1110329,42.04595 66.4903162,41 71.1138942,41 C87.6824366,41 101.113894,54.4314575 101.113894,71 C101.113894,87.5685425 87.6824366,101 71.1138942,101 C54.5453517,101 41.1138942,87.5685425 41.1138942,71 C41.1138942,66.376422 42.1598441,61.9971387 44.028036,58.0858581 C50.2215072,55.1275961 55.2414903,50.107613 58.1997523,43.9141419 L58.1997523,43.9141419 Z" id="Layer-1" fill="#FFF9E6"></path>
                    <circle id="Layer-2" fill="#FFF9E6" cx="31.1138942" cy="31" r="30"></circle>
                    <path d="M71.0972345,0.983340323 L101.11813,31.0042362" id="Layer-3" fill="#FFF9E6"></path>
                    <polyline id="Layer-4" points="101.113894 21 101.113894 31 91.1138942 31"></polyline>
                    <path d="M30.9027655,101.01666 L0.881869623,70.9957638" id="Layer-5" fill="#FFF9E6"></path>
                    <polyline id="Layer-6" points="0.886105844 81 0.886105844 71 10.8861058 71"></polyline>
                    <path d="M77.4935692,71 L64.8433101,71 C61.3476702,71 58.5138942,68.1679518 58.5138942,64.6727273 L58.5138942,64.6727273 L58.5138942,64.6727273 C58.5138942,61.178271 61.3496088,58.3454545 64.8433101,58.3454545 L77.4935692,58.3454545 C80.989209,58.3454545 83.8229851,61.1775027 83.8229851,64.6727273 L83.8229851,64.6727273" id="Layer-7" fill="#FFF9E6"></path>
                    <path d="M64.8433101,71 L77.4935692,71 C80.989209,71 83.8229851,73.8320482 83.8229851,77.3272727 L83.8229851,77.3272727 C83.8229851,80.821729 80.9872705,83.6545455 77.4935692,83.6545455 L64.8433101,83.6545455 C61.3476702,83.6545455 58.5138942,80.8224973 58.5138942,77.3272727 L58.5138942,77.3272727 L58.5138942,77.3272727" id="Layer-8" fill="#FFF9E6"></path>
                    <path d="M71.3266214,53.6 L71.3266214,88.4" id="Layer-9" fill="#FFF9E6"></path>
                    <path d="M33.0173913,16.1937888 C31.626087,16.1142857 30.9900621,16.1142857 29.9167702,16.1142857 L23,16.1142857 L23,43.5428571 L30.6322981,43.5428571 C31.5863354,43.5428571 32.3416149,43.5428571 33.3354037,43.463354 C37.4298137,43.2248447 40.9677019,40.6409938 40.9677019,36.268323 C40.9677019,32.531677 38.9006211,29.7093168 34.6074534,29.0732919 C37.9068323,28.5565217 39.9341615,26.131677 39.9341615,22.6732919 C39.9341615,18.8571429 37.1515528,16.4720497 33.0173913,16.1937888 Z" id="Layer-10" fill="#FFF9E6"></path>
                    <path d="M34.828572,29.1885714 L23.2612319,29.1885714" id="Layer-11" fill="#FFF9E6"></path>
                    <path d="M26.4285714,12.187013 L26.4285714,15.9272727" id="Layer-12" fill="#FFF9E6"></path>
                    <path d="M31.2285714,12.187013 L31.2285714,15.9272727" id="Layer-13" fill="#FFF9E6"></path>
                    <path d="M26.0857143,44.0727273 L26.0857143,47.812987" id="Layer-14" fill="#FFF9E6"></path>
                    <path d="M30.8857143,44.0727273 L30.8857143,47.812987" id="Layer-15" fill="#FFF9E6"></path>
                </g>
            </g>
        </g>
    </g>
</svg>