<?xml version="1.0" encoding="UTF-8"?>
<svg width="75px" height="104px" viewBox="0 0 75 104" version="1.1" xmlns="http://www.w3.org/2000/svg" xmlns:xlink="http://www.w3.org/1999/xlink">
    <!-- Generator: Sketch 46.2 (44496) - http://www.bohemiancoding.com/sketch -->
    <title>e-commerce-30</title>
    <desc>Created with Sketch.</desc>
    <defs></defs>
    <g id="ALL" stroke="none" stroke-width="1" fill="none" fill-rule="evenodd" stroke-linecap="round" stroke-linejoin="round">
        <g id="Primary" transform="translate(-540.000000, -2928.000000)" stroke="#FFC107" stroke-width="3.5" fill="#FFF9E6">
            <g id="Group-15" transform="translate(200.000000, 200.000000)">
                <g id="e-commerce-30" transform="translate(342.000000, 2730.000000)">
                    <path d="M35.4159479,99.9973809 C35.5594256,99.9991253 35.7031126,100 35.847004,100 C55.0355959,100 70.5910232,84.4445613 70.5910232,65.2559808 C70.5910232,12.8555887 19.7923287,0 19.7923287,0 C19.7923287,0 25.844742,15.5064143 17.9170392,29.9410808 C9.98933638,44.3757473 -2.18532359e-09,47.7170155 0,65.2559808 C2.39085145e-09,84.4444535 15.5554273,100 34.7440192,100 C34.8327182,100 34.9213396,99.9996676 35.0098821,99.999004 C26.1992656,99.8855271 21.3974502,90.0895476 21.3974502,78.021978 C21.3974502,65.8838517 32.7228923,56.043956 35.1648352,56.043956 C37.606778,56.043956 49.4312328,65.8838517 49.4312328,78.021978 C49.4312328,90.0456332 44.1746569,99.8142011 35.4159479,99.9973809 L35.4159479,99.9973809 Z" id="Layer-1"></path>
                </g>
            </g>
        </g>
    </g>
</svg>