<?xml version="1.0" encoding="UTF-8"?>
<svg width="104px" height="104px" viewBox="0 0 104 104" version="1.1" xmlns="http://www.w3.org/2000/svg" xmlns:xlink="http://www.w3.org/1999/xlink">
    <!-- Generator: Sketch 46.2 (44496) - http://www.bohemiancoding.com/sketch -->
    <title>gestures-26</title>
    <desc>Created with Sketch.</desc>
    <defs></defs>
    <g id="ALL" stroke="none" stroke-width="1" fill="none" fill-rule="evenodd" stroke-linecap="round" stroke-linejoin="round">
        <g id="Primary" transform="translate(-3067.000000, -22362.000000)" stroke="#FFC107" stroke-width="3.5">
            <g id="Group-15" transform="translate(200.000000, 200.000000)">
                <g id="gestures-26" transform="translate(2869.000000, 22164.000000)">
                    <polyline id="Layer-1" transform="translate(94.000000, 50.000000) scale(-1, -1) rotate(-540.000000) translate(-94.000000, -50.000000) " points="88 38 100 50 88 62"></polyline>
                    <path d="M86,64 L86,36" id="Layer-2" fill="#FFF9E6" transform="translate(86.000000, 50.000000) scale(-1, -1) rotate(-270.000000) translate(-86.000000, -50.000000) "></path>
                    <polyline id="Layer-3" transform="translate(6.000000, 50.000000) scale(1, -1) rotate(-540.000000) translate(-6.000000, -50.000000) " points="5.32907052e-15 38 12 50 1.77635684e-14 62"></polyline>
                    <path d="M14,64 L14,36" id="Layer-4" fill="#FFF9E6" transform="translate(14.000000, 50.000000) scale(1, -1) rotate(-270.000000) translate(-14.000000, -50.000000) "></path>
                    <polyline id="Layer-5" transform="translate(50.000000, 94.000000) rotate(-270.000000) translate(-50.000000, -94.000000) " points="44 82 56 94 44 106"></polyline>
                    <path d="M50,100 L50,72" id="Layer-6" fill="#FFF9E6"></path>
                    <polyline id="Layer-7" transform="translate(50.000000, 6.000000) scale(1, -1) rotate(-270.000000) translate(-50.000000, -6.000000) " points="44 -6 56 6 44 18"></polyline>
                    <path d="M50,28 L50,0" id="Layer-8" fill="#FFF9E6" transform="translate(50.000000, 14.000000) scale(1, -1) translate(-50.000000, -14.000000) "></path>
                    <rect id="Layer-9" fill="#FFF9E6" x="40" y="40" width="20" height="20"></rect>
                </g>
            </g>
        </g>
    </g>
</svg>