<?xml version="1.0" encoding="UTF-8"?>
<svg width="84px" height="104px" viewBox="0 0 84 104" version="1.1" xmlns="http://www.w3.org/2000/svg" xmlns:xlink="http://www.w3.org/1999/xlink">
    <!-- Generator: Sketch 46.2 (44496) - http://www.bohemiancoding.com/sketch -->
    <title>healthcare-3</title>
    <desc>Created with Sketch.</desc>
    <defs></defs>
    <g id="ALL" stroke="none" stroke-width="1" fill="none" fill-rule="evenodd" stroke-linecap="round" stroke-linejoin="round">
        <g id="Primary" transform="translate(-2757.000000, -16002.000000)" stroke="#FFC107" stroke-width="3.5" fill="#FFF9E6">
            <g id="Group-15" transform="translate(200.000000, 200.000000)">
                <g id="healthcare-3" transform="translate(2559.000000, 15804.000000)">
                    <path d="M64.9496911,55.1006023 C61.2704714,32.9362497 51.4436226,0 39.8989899,0 C28.3543572,0 18.5275084,32.9362497 14.8482887,55.1006023 C14.3402571,55.0341564 13.8234969,55 13.2996633,55 C5.95446208,55 0,61.7157288 0,70 C0,78.2842712 5.95446208,85 13.2996633,85 C14.4517362,85 15.5695955,84.8347865 16.6356317,84.5242202 C21.1763416,93.7545494 29.8923797,100 39.8989899,100 C49.9056001,100 58.6216382,93.7545494 63.162348,84.5242202 C64.2283843,84.8347865 65.3462436,85 66.4983165,85 C73.8435177,85 79.7979798,78.2842712 79.7979798,70 C79.7979798,61.7157288 73.8435177,55 66.4983165,55 C65.9744829,55 65.4577227,55.0341564 64.9496911,55.1006023 L64.9496911,55.1006023 Z" id="Layer-1"></path>
                    <path d="M13.2996633,69.9354081 C13.2996633,86.5396237 25.2085875,100 39.8989899,100 L39.8989899,100 C54.5893923,100 66.4983165,86.5396237 66.4983165,69.9354081" id="Layer-2"></path>
                </g>
            </g>
        </g>
    </g>
</svg>