<?xml version="1.0" encoding="UTF-8"?>
<svg width="104px" height="94px" viewBox="0 0 104 94" version="1.1" xmlns="http://www.w3.org/2000/svg" xmlns:xlink="http://www.w3.org/1999/xlink">
    <!-- Generator: Sketch 46.2 (44496) - http://www.bohemiancoding.com/sketch -->
    <title>holidays-19</title>
    <desc>Created with Sketch.</desc>
    <defs></defs>
    <g id="ALL" stroke="none" stroke-width="1" fill="none" fill-rule="evenodd" stroke-linecap="round" stroke-linejoin="round">
        <g id="Primary" transform="translate(-1482.000000, -17524.000000)" stroke="#FFC107" stroke-width="3.5">
            <g id="Group-15" transform="translate(200.000000, 200.000000)">
                <g id="holidays-19" transform="translate(1284.000000, 17326.000000)">
                    <path d="M15.4410404,80 L7,27.6065047 L25.3568093,41.4998956 L25.3568093,41.4998956 C27.9966804,43.4978878 31.4553871,42.7862214 33.0890043,39.8980438 L50,10 L67.1741924,39.916965 C68.823025,42.7891856 72.2879206,43.4859057 74.9199478,41.4680003 L93,27.6065047 L84.9390803,80" id="Layer-1" fill="#FFF9E6"></path>
                    <polygon id="Layer-2" fill="#FFFFFF" points="15.4410404 80 13.3466292 67 86.9391751 67 84.9390803 80"></polygon>
                    <circle id="Layer-3" fill="#FFFFFF" cx="50" cy="5" r="5"></circle>
                    <circle id="Layer-4" fill="#FFFFFF" cx="5" cy="23" r="5"></circle>
                    <circle id="Layer-5" fill="#FFFFFF" cx="95" cy="23" r="5"></circle>
                    <rect id="Layer-6" fill="#FFF9E6" x="11" y="80" width="78" height="10" rx="3"></rect>
                    <circle id="Layer-7" fill="#FFF9E6" cx="50" cy="74" r="2"></circle>
                    <circle id="Layer-8" fill="#FFF9E6" cx="70" cy="74" r="2"></circle>
                    <circle id="Layer-9" fill="#FFF9E6" cx="30" cy="74" r="2"></circle>
                    <polygon id="Layer-10" fill="#FFFFFF" points="56 46.8592346 50 55.8592346 44 46.8592346 50 37.8592346"></polygon>
                </g>
            </g>
        </g>
    </g>
</svg>