<?xml version="1.0" encoding="UTF-8"?>
<svg width="104px" height="104px" viewBox="0 0 104 104" version="1.1" xmlns="http://www.w3.org/2000/svg" xmlns:xlink="http://www.w3.org/1999/xlink">
    <!-- Generator: Sketch 46.2 (44496) - http://www.bohemiancoding.com/sketch -->
    <title>numbers-29</title>
    <desc>Created with Sketch.</desc>
    <defs></defs>
    <g id="ALL" stroke="none" stroke-width="1" fill="none" fill-rule="evenodd" stroke-linecap="round" stroke-linejoin="round">
        <g id="Primary" transform="translate(-1482.000000, -25068.000000)" stroke="#FFC107" stroke-width="3.5" fill="#FFF9E6">
            <g id="Group-15" transform="translate(200.000000, 200.000000)">
                <g id="numbers-29" transform="translate(1284.000000, 24870.000000)">
                    <path d="M50,100 C77.6142375,100 100,77.6142375 100,50 C100,22.3857625 77.6142375,0 50,0 C22.3857625,0 0,22.3857625 0,50 C0,77.6142375 22.3857625,100 50,100 Z" id="Layer-1"></path>
                    <path d="M34,61.3701578 C34.9325681,68.758967 39.8823529,75 49.1362984,75 C57.3142037,75 64.4160689,69.8350072 64.4160689,62.58967 C64.4160689,54.9856528 59.7532281,51.9727403 49.1362984,48.9598278 C39.0932568,46.0903874 34.8608321,43.4361549 34.8608321,36.3342898 C34.8608321,29.6628407 41.0301291,25 49.1362984,25 C57.1707317,25 64.2008608,29.3041607 65.133429,37.41033" id="Layer-2"></path>
                </g>
            </g>
        </g>
    </g>
</svg>