<?xml version="1.0" encoding="UTF-8"?>
<svg width="104px" height="104px" viewBox="0 0 104 104" version="1.1" xmlns="http://www.w3.org/2000/svg" xmlns:xlink="http://www.w3.org/1999/xlink">
    <!-- Generator: Sketch 46.2 (44496) - http://www.bohemiancoding.com/sketch -->
    <title>office-25</title>
    <desc>Created with Sketch.</desc>
    <defs></defs>
    <g id="ALL" stroke="none" stroke-width="1" fill="none" fill-rule="evenodd" stroke-linecap="round" stroke-linejoin="round">
        <g id="Primary" transform="translate(-843.000000, -15692.000000)" stroke="#FFC107" stroke-width="3.5">
            <g id="Group-15" transform="translate(200.000000, 200.000000)">
                <g id="office-25" transform="translate(645.000000, 15494.000000)">
                    <rect id="Layer-1" fill="#FFF9E6" x="0" y="0" width="100" height="100" rx="3"></rect>
                    <rect id="Layer-2" fill="#FFFFFF" x="10" y="30" width="20" height="20"></rect>
                    <rect id="Layer-3" fill="#FFFFFF" x="30" y="30" width="20" height="20"></rect>
                    <rect id="Layer-4" fill="#FFFFFF" x="50" y="30" width="20" height="20"></rect>
                    <rect id="Layer-5" fill="#FFFFFF" x="70" y="30" width="20" height="20"></rect>
                    <rect id="Layer-6" fill="#FFFFFF" x="70" y="50" width="20" height="20"></rect>
                    <rect id="Layer-7" fill="#FFFFFF" x="50" y="50" width="20" height="20"></rect>
                    <rect id="Layer-8" fill="#FFFFFF" x="30" y="50" width="20" height="20"></rect>
                    <rect id="Layer-9" fill="#FFFFFF" x="10" y="50" width="20" height="20"></rect>
                    <rect id="Layer-10" fill="#FFFFFF" x="10" y="70" width="20" height="20"></rect>
                    <rect id="Layer-11" fill="#FFFFFF" x="30" y="70" width="20" height="20"></rect>
                    <rect id="Layer-12" fill="#FFFFFF" x="50" y="70" width="20" height="20"></rect>
                    <rect id="Layer-13" fill="#FFFFFF" x="70" y="70" width="20" height="20"></rect>
                    <path d="M20,0 L30,0 L30,5 C30,7.76142375 27.7558048,10 25,10 L25,10 C22.2385763,10 20,7.75580481 20,5 L20,0 Z" id="Layer-14" fill="#FFF9E6"></path>
                    <path d="M70,0 L80,0 L80,5 C80,7.76142375 77.7558048,10 75,10 L75,10 C72.2385763,10 70,7.75580481 70,5 L70,0 Z" id="Layer-15" fill="#FFF9E6"></path>
                </g>
            </g>
        </g>
    </g>
</svg>