<?xml version="1.0" encoding="UTF-8"?>
<svg width="104px" height="104px" viewBox="0 0 104 104" version="1.1" xmlns="http://www.w3.org/2000/svg" xmlns:xlink="http://www.w3.org/1999/xlink">
    <!-- Generator: Sketch 46.2 (44496) - http://www.bohemiancoding.com/sketch -->
    <title>science-19</title>
    <desc>Created with Sketch.</desc>
    <defs></defs>
    <g id="ALL" stroke="none" stroke-width="1" fill="none" fill-rule="evenodd" stroke-linecap="round" stroke-linejoin="round">
        <g id="Primary" transform="translate(-2117.000000, -5079.000000)" stroke="#FFC107" stroke-width="3.5">
            <g id="Group-15" transform="translate(200.000000, 200.000000)">
                <g id="science-19" transform="translate(1919.000000, 4881.000000)">
                    <circle id="Layer-1" fill="#FFFFFF" cx="8" cy="8" r="8"></circle>
                    <circle id="Layer-2" fill="#FFFFFF" cx="68" cy="92" r="8"></circle>
                    <circle id="Layer-3" fill="#FFFFFF" cx="94" cy="66" r="6"></circle>
                    <circle id="Layer-4" fill="#FFFFFF" cx="61" cy="39" r="5"></circle>
                    <circle id="Layer-5" fill="#FFFFFF" cx="43" cy="15" r="5"></circle>
                    <circle id="Layer-6" fill="#FFF9E6" cx="96" cy="4" r="4"></circle>
                    <circle id="Layer-7" fill="#FFF9E6" cx="90" cy="34" r="4"></circle>
                    <circle id="Layer-8" fill="#FFF9E6" cx="20" cy="34" r="4"></circle>
                    <circle id="Layer-9" fill="#FFF9E6" cx="25" cy="94" r="4"></circle>
                    <circle id="Layer-10" fill="#FFFFFF" cx="36" cy="66" r="6"></circle>
                    <path d="M16.5,9.5 L37.5,13.5" id="Layer-11" fill="#FFF9E6"></path>
                    <path d="M46.5,18.5 L58.5,34.5" id="Layer-12" fill="#FFF9E6"></path>
                    <path d="M64.5,42.5 L89.5,61.5" id="Layer-13" fill="#FFF9E6"></path>
                    <path d="M40,71 L61.0605469,87.9829102" id="Layer-14" fill="#FFF9E6"></path>
                    <path d="M89.5,70.5 L73.5,85.5" id="Layer-15" fill="#FFF9E6"></path>
                    <path d="M57.5,43.5 L40.5,61.5" id="Layer-16" fill="#FFF9E6"></path>
                </g>
            </g>
        </g>
    </g>
</svg>