<?xml version="1.0" encoding="UTF-8"?>
<svg width="105px" height="105px" viewBox="0 0 105 105" version="1.1" xmlns="http://www.w3.org/2000/svg" xmlns:xlink="http://www.w3.org/1999/xlink">
    <!-- Generator: Sketch 46.2 (44496) - http://www.bohemiancoding.com/sketch -->
    <title>sports-26</title>
    <desc>Created with Sketch.</desc>
    <defs></defs>
    <g id="ALL" stroke="none" stroke-width="1" fill="none" fill-rule="evenodd" stroke-linecap="round" stroke-linejoin="round">
        <g id="Primary" transform="translate(-2432.000000, -9005.000000)" stroke="#FFC107" stroke-width="3.5">
            <g id="Group-15" transform="translate(200.000000, 200.000000)">
                <g id="sports-26" transform="translate(2234.000000, 8807.000000)">
                    <path d="M50.424712,100.849424 C78.2735115,100.849424 100.849424,78.2735115 100.849424,50.424712 C100.849424,22.5759126 78.2735115,0 50.424712,0 C22.5759126,0 0,22.5759126 0,50.424712 C0,78.2735115 22.5759126,100.849424 50.424712,100.849424 L50.424712,100.849424 Z" id="Layer-1" fill="#FFFFFF"></path>
                    <path d="M50.424712,82.5131652 C68.1466753,82.5131652 82.5131652,68.1466753 82.5131652,50.424712 C82.5131652,32.7027487 68.1466753,18.3362589 50.424712,18.3362589 C32.7027487,18.3362589 18.3362589,32.7027487 18.3362589,50.424712 C18.3362589,68.1466753 32.7027487,82.5131652 50.424712,82.5131652 L50.424712,82.5131652 Z" id="Layer-2" fill="#FFF9E6"></path>
                    <path d="M50.424712,64.1769062 C58.0198392,64.1769062 64.1769062,58.0198392 64.1769062,50.424712 C64.1769062,42.8295849 58.0198392,36.6725178 50.424712,36.6725178 C42.8295849,36.6725178 36.6725178,42.8295849 36.6725178,50.424712 C36.6725178,58.0198392 42.8295849,64.1769062 50.424712,64.1769062 L50.424712,64.1769062 Z" id="Layer-3" fill="#FFFFFF"></path>
                </g>
            </g>
        </g>
    </g>
</svg>