<?xml version="1.0" encoding="UTF-8"?>
<svg width="104px" height="104px" viewBox="0 0 104 104" version="1.1" xmlns="http://www.w3.org/2000/svg" xmlns:xlink="http://www.w3.org/1999/xlink">
    <!-- Generator: Sketch 46.2 (44496) - http://www.bohemiancoding.com/sketch -->
    <title>sports-2</title>
    <desc>Created with Sketch.</desc>
    <defs></defs>
    <g id="ALL" stroke="none" stroke-width="1" fill="none" fill-rule="evenodd" stroke-linecap="round" stroke-linejoin="round">
        <g id="Primary" transform="translate(-2432.000000, -8404.000000)" stroke="#FFC107" stroke-width="3.5">
            <g id="Group-15" transform="translate(200.000000, 200.000000)">
                <g id="sports-2" transform="translate(2234.000000, 8206.000000)">
                    <path d="M49.7508831,99.5017662 C77.2275371,99.5017662 99.5017662,77.2275371 99.5017662,49.7508831 C99.5017662,22.2742291 77.2275371,0 49.7508831,0 C22.2742291,0 0,22.2742291 0,49.7508831 C0,77.2275371 22.2742291,99.5017662 49.7508831,99.5017662 Z" id="Layer-1" fill="#FFF9E6"></path>
                    <path d="M15.8676483,14.2508301 C15.8676483,14.2508301 30.554201,24.9839586 30.554201,50.3894439 C30.554201,75.7949292 15.8676483,86.5280578 15.8676483,86.5280578" id="Layer-2"></path>
                    <path d="M35.9014743,49.7241646 L25.0103851,49.7241646" id="Layer-3" fill="#FFF9E6"></path>
                    <path d="M33.9242715,32.1816859 L23.6265445,35.7274777" id="Layer-4" fill="#FFF9E6"></path>
                    <path d="M27.3951408,17.5622156 L18.9311749,24.4162" id="Layer-5" fill="#FFF9E6"></path>
                    <path d="M33.9242715,67.2666432 L23.6265445,63.7208515" id="Layer-6" fill="#FFF9E6"></path>
                    <path d="M27.3951408,81.8861136 L18.9311749,75.0321291" id="Layer-7" fill="#FFF9E6"></path>
                    <path d="M83.6341178,14.2508301 C83.6341178,14.2508301 68.9475651,24.9839586 68.9475651,50.3894439 C68.9475651,75.7949292 83.6341178,86.5280578 83.6341178,86.5280578" id="Layer-8"></path>
                    <path d="M63.6002919,49.7241646 L74.491381,49.7241646" id="Layer-9" fill="#FFF9E6"></path>
                    <path d="M65.5774946,32.1816859 L75.8752217,35.7274777" id="Layer-10" fill="#FFF9E6"></path>
                    <path d="M72.1066253,17.5622156 L80.5705912,24.4162" id="Layer-11" fill="#FFF9E6"></path>
                    <path d="M65.5774946,67.2666432 L75.8752217,63.7208515" id="Layer-12" fill="#FFF9E6"></path>
                    <path d="M72.1066253,81.8861136 L80.5705912,75.0321291" id="Layer-13" fill="#FFF9E6"></path>
                </g>
            </g>
        </g>
    </g>
</svg>