<?xml version="1.0" encoding="UTF-8"?>
<svg width="104px" height="104px" viewBox="0 0 104 104" version="1.1" xmlns="http://www.w3.org/2000/svg" xmlns:xlink="http://www.w3.org/1999/xlink">
    <!-- Generator: Sketch 46.2 (44496) - http://www.bohemiancoding.com/sketch -->
    <title>web-10</title>
    <desc>Created with Sketch.</desc>
    <defs></defs>
    <g id="ALL" stroke="none" stroke-width="1" fill="none" fill-rule="evenodd" stroke-linecap="round" stroke-linejoin="round">
        <g id="Primary" transform="translate(-3067.000000, -18427.000000)" stroke="#FFC107" stroke-width="3.5">
            <g id="Group-15" transform="translate(200.000000, 200.000000)">
                <g id="web-10" transform="translate(2869.000000, 18229.000000)">
                    <polygon id="Layer-1" fill="#FFF9E6" points="86 93 14 93 14 86 7 86 7 14 14 14 14 7 86 7 86 14 93 14 93 86 86 86"></polygon>
                    <path d="M20,60 L80,60" id="Layer-2" fill="#FFF9E6"></path>
                    <path d="M20,70 L80,70" id="Layer-3" fill="#FFF9E6"></path>
                    <path d="M20,80 L50,80" id="Layer-4" fill="#FFF9E6"></path>
                    <path d="M58,80 L68,80" id="Layer-5" fill="#FFF9E6"></path>
                    <rect id="Layer-6" fill="#FFFFFF" x="86" y="0" width="14" height="14"></rect>
                    <rect id="Layer-7" fill="#FFFFFF" x="0" y="0" width="14" height="14"></rect>
                    <rect id="Layer-8" fill="#FFFFFF" x="0" y="86" width="14" height="14"></rect>
                    <rect id="Layer-9" fill="#FFFFFF" x="86" y="86" width="14" height="14"></rect>
                    <circle id="Layer-10" fill="#FFFFFF" cx="32" cy="37" r="12"></circle>
                    <polygon id="Layer-11" fill="#FFFFFF" points="67 25.0136719 79 49.0136719 55 49.0136719"></polygon>
                </g>
            </g>
        </g>
    </g>
</svg>