<?xml version="1.0" encoding="UTF-8"?>
<svg width="104px" height="108px" viewBox="0 0 104 108" version="1.1" xmlns="http://www.w3.org/2000/svg" xmlns:xlink="http://www.w3.org/1999/xlink">
    <!-- Generator: Sketch 46.2 (44496) - http://www.bohemiancoding.com/sketch -->
    <title>business-4</title>
    <desc>Created with Sketch.</desc>
    <defs></defs>
    <g id="ALL" stroke="none" stroke-width="1" fill="none" fill-rule="evenodd" stroke-linecap="round" stroke-linejoin="round">
        <g id="Primary" transform="translate(-525.000000, -11118.000000)" stroke="#1989FB" stroke-width="3.5">
            <g id="Group-15" transform="translate(200.000000, 200.000000)">
                <g id="business-4" transform="translate(327.000000, 10920.000000)">
                    <path d="M50.1138942,14.5 L50.1138942,103.5" id="Layer-1" fill="#DBECFF"></path>
                    <path d="M75.1138942,5 L25.5451918,21.5229008" id="Layer-2" fill="#DBECFF"></path>
                    <path d="M69.1138942,104 L29.1138942,104" id="Layer-3" fill="#DBECFF"></path>
                    <path d="M40.1138942,74 C40.1138942,85.045695 31.1595892,94 20.1138942,94 C9.06819916,94 0.113894156,85.045695 0.113894156,74 L40.1138942,74 L40.1138942,74 Z" id="Layer-4" fill="#DBECFF"></path>
                    <path d="M100.113894,54 C100.113894,65.045695 91.1595892,74 80.1138942,74 C69.0681992,74 60.1138942,65.045695 60.1138942,54 L100.113894,54 L100.113894,54 Z" id="Layer-5" fill="#DBECFF"></path>
                    <circle id="Layer-6" fill="#DBECFF" cx="20.1138942" cy="24" r="4"></circle>
                    <circle id="Layer-7" fill="#DBECFF" cx="80.1138942" cy="4" r="4"></circle>
                    <path d="M21.599852,27.7148945 L40.1138942,74 L0.113894156,74 L18.6279364,27.7148945 C19.0873356,27.8988207 19.588799,28 20.1138942,28 C20.6389893,28 21.1404527,27.8988207 21.599852,27.7148945 Z" id="Layer-8" fill="#FFFFFF"></path>
                    <path d="M81.599852,7.71489451 L100.113894,54 L60.1138942,54 L78.6279364,7.71489451 C79.0873356,7.89882068 79.588799,8 80.1138942,8 C80.6389893,8 81.1404527,7.89882068 81.599852,7.71489451 Z" id="Layer-9" fill="#FFFFFF"></path>
                </g>
            </g>
        </g>
    </g>
</svg>