<?xml version="1.0" encoding="UTF-8"?>
<svg width="96px" height="104px" viewBox="0 0 96 104" version="1.1" xmlns="http://www.w3.org/2000/svg" xmlns:xlink="http://www.w3.org/1999/xlink">
    <!-- Generator: Sketch 46.2 (44496) - http://www.bohemiancoding.com/sketch -->
    <title>devices-26</title>
    <desc>Created with Sketch.</desc>
    <defs></defs>
    <g id="ALL" stroke="none" stroke-width="1" fill="none" fill-rule="evenodd" stroke-linecap="round" stroke-linejoin="round">
        <g id="Primary" transform="translate(-2436.000000, -7482.000000)" stroke="#1989FB" stroke-width="3.5">
            <g id="Group-15" transform="translate(200.000000, 200.000000)">
                <g id="devices-26" transform="translate(2238.000000, 7284.000000)">
                    <path d="M89.7537245,94.9142625 C93.1674682,97.7230377 92.3494431,100 87.9415862,100 L9.94472014,100 L3.94230804,100 C-0.480086598,100 -1.30570779,97.7295773 2.11598393,94.9142625 L19.0121123,81.0123904 C26.5309809,86.6560892 35.8749843,90 46,90 C56.0944259,90 65.4125516,86.676264 72.9196894,81.0634799 L89.7537245,94.9142625 Z" id="Layer-1" fill="#DBECFF"></path>
                    <circle id="Layer-2" fill="#DBECFF" cx="46" cy="45" r="45"></circle>
                    <circle id="Layer-3" fill="#DBECFF" cx="46" cy="45" r="22.5"></circle>
                    <circle id="Layer-4" fill="#FFFFFF" cx="46" cy="45" r="11.25"></circle>
                    <circle id="Layer-5" fill="#FFFFFF" cx="46" cy="5" r="5"></circle>
                    <path d="M68.5,45 L91,45" id="Layer-6" fill="#DBECFF"></path>
                    <path d="M1,45 L23.5,45" id="Layer-7" fill="#DBECFF"></path>
                </g>
            </g>
        </g>
    </g>
</svg>