<?xml version="1.0" encoding="UTF-8"?>
<svg width="64px" height="104px" viewBox="0 0 64 104" version="1.1" xmlns="http://www.w3.org/2000/svg" xmlns:xlink="http://www.w3.org/1999/xlink">
    <!-- Generator: Sketch 46.2 (44496) - http://www.bohemiancoding.com/sketch -->
    <title>devices-16</title>
    <desc>Created with Sketch.</desc>
    <defs></defs>
    <g id="ALL" stroke="none" stroke-width="1" fill="none" fill-rule="evenodd" stroke-linecap="round" stroke-linejoin="round">
        <g id="Primary" transform="translate(-3087.000000, -7182.000000)" stroke="#1989FB" stroke-width="3.5">
            <g id="Group-15" transform="translate(200.000000, 200.000000)">
                <g id="devices-16" transform="translate(2889.000000, 6984.000000)">
                    <rect id="Layer-1" fill="#DBECFF" x="0" y="0" width="60" height="100" rx="3"></rect>
                    <path d="M60,84 L60,97.0071986 C60,98.6600772 58.6626903,100 57.0040626,100 L2.99593743,100 C1.34132688,100 0,98.6619875 0,97.0071986 L0,84 L60,84 L60,84 Z" id="Layer-2" fill="#DBECFF"></path>
                    <path d="M60,16 L60,3.42034442 C60,1.52915716 58.6586731,0 57.0040626,0 L2.99593743,0 C1.33730974,0 0,1.53134036 0,3.42034442 L0,16 L60,16 L60,16 Z" id="Layer-3" fill="#DBECFF"></path>
                    <rect id="Layer-4" fill="#FFFFFF" x="0" y="0" width="60" height="100" rx="3"></rect>
                    <path d="M60,84 L60,97.0071986 C60,98.6600772 58.6626903,100 57.0040626,100 L2.99593743,100 C1.34132688,100 0,98.6619875 0,97.0071986 L0,84 L60,84 L60,84 Z" id="Layer-5" fill="#DBECFF"></path>
                    <path d="M60,16 L60,3.42034442 C60,1.52915716 58.6586731,0 57.0040626,0 L2.99593743,0 C1.33730974,0 0,1.53134036 0,3.42034442 L0,16 L60,16 L60,16 Z" id="Layer-6" fill="#DBECFF"></path>
                    <path d="M30,95 C31.6568542,95 33,93.6568542 33,92 C33,90.3431458 31.6568542,89 30,89 C28.3431458,89 27,90.3431458 27,92 C27,93.6568542 28.3431458,95 30,95 Z" id="Layer-7" fill="#DBECFF"></path>
                    <path d="M27,8 L33,8" id="Layer-8" fill="#DBECFF"></path>
                </g>
            </g>
        </g>
    </g>
</svg>