<?xml version="1.0" encoding="UTF-8"?>
<svg width="104px" height="84px" viewBox="0 0 104 84" version="1.1" xmlns="http://www.w3.org/2000/svg" xmlns:xlink="http://www.w3.org/1999/xlink">
    <!-- Generator: Sketch 46.2 (44496) - http://www.bohemiancoding.com/sketch -->
    <title>devices-18</title>
    <desc>Created with Sketch.</desc>
    <defs></defs>
    <g id="ALL" stroke="none" stroke-width="1" fill="none" fill-rule="evenodd" stroke-linecap="round" stroke-linejoin="round">
        <g id="Primary" transform="translate(-3697.000000, -7182.000000)" stroke="#1989FB" stroke-width="3.5">
            <g id="Group-15" transform="translate(200.000000, 200.000000)">
                <g id="devices-18" transform="translate(3499.000000, 6984.000000)">
                    <path d="M5,3.0020839 C5,1.34407874 6.34209558,0 7.99446106,0 L92.0055389,0 C93.6593341,0 95,1.34240766 95,3.0020839 L95,72 L5,72 L5,3.0020839 Z" id="Layer-1" fill="#DBECFF"></path>
                    <rect id="Layer-2" fill="#FFFFFF" x="11" y="6" width="78" height="60"></rect>
                    <rect id="Layer-3" fill="#DBECFF" x="0" y="72" width="100" height="8"></rect>
                    <path d="M43,72 L57,72 L57,74 C57,75.1045695 56.1029399,76 54.9941413,76 L45.0058587,76 C43.8980535,76 43,75.1122704 43,74 L43,72 Z" id="Layer-4" fill="#DBECFF"></path>
                </g>
            </g>
        </g>
    </g>
</svg>