<?xml version="1.0" encoding="UTF-8"?>
<svg width="104px" height="94px" viewBox="0 0 104 94" version="1.1" xmlns="http://www.w3.org/2000/svg" xmlns:xlink="http://www.w3.org/1999/xlink">
    <!-- Generator: Sketch 46.2 (44496) - http://www.bohemiancoding.com/sketch -->
    <title>devices-48</title>
    <desc>Created with Sketch.</desc>
    <defs></defs>
    <g id="ALL" stroke="none" stroke-width="1" fill="none" fill-rule="evenodd" stroke-linecap="round" stroke-linejoin="round">
        <g id="Primary" transform="translate(-1797.000000, -8104.000000)" stroke="#1989FB" stroke-width="3.5">
            <g id="Group-15" transform="translate(200.000000, 200.000000)">
                <g id="devices-48" transform="translate(1599.000000, 7906.000000)">
                    <rect id="Layer-1" fill="#DBECFF" x="0" y="34" width="100" height="56" rx="5"></rect>
                    <path d="M11,47 L89.5015945,47" id="Layer-2" fill="#DBECFF"></path>
                    <path d="M11,57 L89.5015945,57" id="Layer-3" fill="#DBECFF"></path>
                    <path d="M11,67 L89.5015945,67" id="Layer-4" fill="#DBECFF"></path>
                    <path d="M11,77 L26.5,77" id="Layer-5" fill="#DBECFF"></path>
                    <path d="M34.4951928,77 L65.5040321,77" id="Layer-6" fill="#DBECFF"></path>
                    <path d="M74.5,77 L89.5055542,77" id="Layer-7" fill="#DBECFF"></path>
                    <path d="M57.0710678,22.9289322 C53.1658249,19.0236893 46.8341751,19.0236893 42.9289322,22.9289322" id="Layer-8"></path>
                    <path d="M64.1421356,15.8578644 C56.3316498,8.04737854 43.6683502,8.04737854 35.8578644,15.8578644" id="Layer-9"></path>
                    <path d="M71.2132034,8.78679656 C59.4974747,-2.92893219 40.5025253,-2.92893219 28.7867966,8.78679656" id="Layer-10"></path>
                </g>
            </g>
        </g>
    </g>
</svg>