<?xml version="1.0" encoding="UTF-8"?>
<svg width="104px" height="104px" viewBox="0 0 104 104" version="1.1" xmlns="http://www.w3.org/2000/svg" xmlns:xlink="http://www.w3.org/1999/xlink">
    <!-- Generator: Sketch 46.2 (44496) - http://www.bohemiancoding.com/sketch -->
    <title>devices-4</title>
    <desc>Created with Sketch.</desc>
    <defs></defs>
    <g id="ALL" stroke="none" stroke-width="1" fill="none" fill-rule="evenodd" stroke-linecap="round" stroke-linejoin="round">
        <g id="Primary" transform="translate(-3067.000000, -6882.000000)" stroke="#1989FB" stroke-width="3.5">
            <g id="Group-15" transform="translate(200.000000, 200.000000)">
                <g id="devices-4" transform="translate(2869.000000, 6684.000000)">
                    <rect id="Layer-1" fill="#DBECFF" x="0" y="30" width="100" height="70" rx="3"></rect>
                    <circle id="Layer-2" fill="#FFFFFF" cx="35" cy="65" r="25"></circle>
                    <circle id="Layer-3" fill="#DBECFF" cx="35" cy="65" r="8"></circle>
                    <path d="M90,30 L20.5,0.5" id="Layer-4" fill="#DBECFF"></path>
                    <rect id="Layer-5" fill="#FFFFFF" x="70" y="40" width="20" height="8" rx="4"></rect>
                    <path d="M70,88 L90,88" id="Layer-6" fill="#DBECFF"></path>
                    <path d="M70,80 L90,80" id="Layer-7" fill="#DBECFF"></path>
                    <path d="M70,72 L90,72" id="Layer-8" fill="#DBECFF"></path>
                    <path d="M80,44.4644661 L80,48" id="Layer-9" fill="#DBECFF"></path>
                    <path d="M10,27 C10,25.3431458 11.3486445,24 13.0003297,24 L16.9996703,24 C18.6567066,24 20,25.3465171 20,27 L20,30 L10,30 L10,27 Z" id="Layer-10" fill="#DBECFF"></path>
                </g>
            </g>
        </g>
    </g>
</svg>