<?xml version="1.0" encoding="UTF-8"?>
<svg width="84px" height="104px" viewBox="0 0 84 104" version="1.1" xmlns="http://www.w3.org/2000/svg" xmlns:xlink="http://www.w3.org/1999/xlink">
    <!-- Generator: Sketch 46.2 (44496) - http://www.bohemiancoding.com/sketch -->
    <title>files-42</title>
    <desc>Created with Sketch.</desc>
    <defs></defs>
    <g id="ALL" stroke="none" stroke-width="1" fill="none" fill-rule="evenodd" stroke-linecap="round" stroke-linejoin="round">
        <g id="Primary" transform="translate(-3707.000000, -21462.000000)" stroke="#1989FB" stroke-width="3.5">
            <g id="Group-15" transform="translate(200.000000, 200.000000)">
                <g id="files-42" transform="translate(3509.000000, 21264.000000)">
                    <polygon id="Layer-1" fill="#DBECFF" points="30.0304261 10 30.0304263 40 0 40 0 0 20 0 20 10"></polygon>
                    <polygon id="Layer-2" fill="#FFFFFF" points="20 0 30 10 20 10"></polygon>
                    <polygon id="Layer-3" fill="#DBECFF" points="80.0304261 10 80.0304263 40 50 40 50 0 70 0 70 10"></polygon>
                    <polygon id="Layer-4" fill="#FFFFFF" points="70 0 80 10 70 10"></polygon>
                    <polygon id="Layer-5" fill="#DBECFF" points="80.0304261 70 80.0304263 100 50 100 50 60 70 60 70 70"></polygon>
                    <polygon id="Layer-6" fill="#FFFFFF" points="70 60 80 70 70 70"></polygon>
                    <polygon id="Layer-7" fill="#DBECFF" points="30.0304261 70 30.0304263 100 0 100 0 60 20 60 20 70"></polygon>
                    <polygon id="Layer-8" fill="#FFFFFF" points="20 60 30 70 20 70"></polygon>
                </g>
            </g>
        </g>
    </g>
</svg>