<?xml version="1.0" encoding="UTF-8"?>
<svg width="104px" height="104px" viewBox="0 0 104 104" version="1.1" xmlns="http://www.w3.org/2000/svg" xmlns:xlink="http://www.w3.org/1999/xlink">
    <!-- Generator: Sketch 46.2 (44496) - http://www.bohemiancoding.com/sketch -->
    <title>gaming-22</title>
    <desc>Created with Sketch.</desc>
    <defs></defs>
    <g id="ALL" stroke="none" stroke-width="1" fill="none" fill-rule="evenodd" stroke-linecap="round" stroke-linejoin="round">
        <g id="Primary" transform="translate(-3067.000000, -12653.000000)" stroke="#1989FB" stroke-width="3.5">
            <g id="Group-15" transform="translate(200.000000, 200.000000)">
                <g id="gaming-22" transform="translate(2869.000000, 12455.000000)">
                    <circle id="Layer-1" fill="#DBECFF" cx="50" cy="50" r="16"></circle>
                    <circle id="Layer-2" fill="#DBECFF" cx="50" cy="50" r="9"></circle>
                    <path d="M66,50.0008108 L100,50.0008108 C100,22.3839331 77.6144453,0 50,0 C22.3855547,0 0,22.3839331 0,50.0008108 L0,50.0008108 L34,50.0008108 C34,41.163444 41.163444,34 50,34 C58.836556,34 66,41.163444 66,50 L66,50.0008108 Z" id="Layer-3" fill="#DBECFF"></path>
                    <path d="M100,100.000811 C100,72.3839331 77.6144453,50 50,50 C22.3855547,50 0,72.3839331 0,100.000811 L34,100.000811 C34,91.163444 41.163444,84 50,84 C58.836556,84 66,91.163444 66,100 L100,100.000811 Z" id="Layer-4" transform="translate(50.000000, 75.000405) rotate(-180.000000) translate(-50.000000, -75.000405) "></path>
                </g>
            </g>
        </g>
    </g>
</svg>