<?xml version="1.0" encoding="UTF-8"?>
<svg width="104px" height="104px" viewBox="0 0 104 104" version="1.1" xmlns="http://www.w3.org/2000/svg" xmlns:xlink="http://www.w3.org/1999/xlink">
    <!-- Generator: Sketch 46.2 (44496) - http://www.bohemiancoding.com/sketch -->
    <title>gestures-30</title>
    <desc>Created with Sketch.</desc>
    <defs></defs>
    <g id="ALL" stroke="none" stroke-width="1" fill="none" fill-rule="evenodd" stroke-linecap="round" stroke-linejoin="round">
        <g id="Primary" transform="translate(-525.000000, -22662.000000)" stroke="#1989FB" stroke-width="3.5">
            <g id="Group-15" transform="translate(200.000000, 200.000000)">
                <g id="gestures-30" transform="translate(327.000000, 22464.000000)">
                    <polyline id="Layer-1" transform="translate(71.000000, 79.000000) scale(-1, 1) rotate(-180.000000) translate(-71.000000, -79.000000) " points="64 65 78 79 64 93"></polyline>
                    <path d="M60,97 L60,61" id="Layer-2" fill="#DBECFF" transform="translate(60.000000, 79.000000) scale(-1, 1) rotate(90.000000) translate(-60.000000, -79.000000) "></path>
                    <circle id="Layer-3" fill="#DBECFF" transform="translate(21.000000, 79.000000) scale(-1, -1) rotate(-90.000000) translate(-21.000000, -79.000000) " cx="21" cy="79" r="21"></circle>
                    <circle id="Layer-4" fill="#FFFFFF" transform="translate(21.000000, 79.000000) scale(-1, -1) rotate(-90.000000) translate(-21.000000, -79.000000) " cx="21" cy="79" r="14"></circle>
                    <polyline id="Layer-5" transform="translate(71.000000, 21.000000) scale(-1, 1) rotate(-180.000000) translate(-71.000000, -21.000000) " points="64 7 78 21 64 35"></polyline>
                    <path d="M60,39 L60,3" id="Layer-6" fill="#DBECFF" transform="translate(60.000000, 21.000000) scale(-1, 1) rotate(90.000000) translate(-60.000000, -21.000000) "></path>
                    <circle id="Layer-7" fill="#DBECFF" transform="translate(21.000000, 21.000000) scale(-1, -1) rotate(-90.000000) translate(-21.000000, -21.000000) " cx="21" cy="21" r="21"></circle>
                    <circle id="Layer-8" fill="#FFFFFF" transform="translate(21.000000, 21.000000) scale(-1, -1) rotate(-90.000000) translate(-21.000000, -21.000000) " cx="21" cy="21" r="14"></circle>
                    <path d="M100,100 L100,0" id="Layer-9" fill="#DBECFF"></path>
                </g>
            </g>
        </g>
    </g>
</svg>