<?xml version="1.0" encoding="UTF-8"?>
<svg width="104px" height="104px" viewBox="0 0 104 104" version="1.1" xmlns="http://www.w3.org/2000/svg" xmlns:xlink="http://www.w3.org/1999/xlink">
    <!-- Generator: Sketch 46.2 (44496) - http://www.bohemiancoding.com/sketch -->
    <title>interface-40</title>
    <desc>Created with Sketch.</desc>
    <defs></defs>
    <g id="ALL" stroke="none" stroke-width="1" fill="none" fill-rule="evenodd" stroke-linecap="round" stroke-linejoin="round">
        <g id="Primary" transform="translate(-1165.000000, -1098.000000)" stroke="#1989FB" stroke-width="3.5">
            <g id="Group-15" transform="translate(200.000000, 200.000000)">
                <g id="interface-40" transform="translate(967.000000, 900.000000)">
                    <path d="M67.9944411,16.9790042 L51.4150952,0.579867481 C50.633976,-0.192761423 49.3647347,-0.193816718 48.5825486,0.579867481 L0.450631302,48.188615 C-0.330487975,48.9612439 -0.0707424908,49.5894942 1.03317205,49.5894942 L14.3236971,49.5894942 L14.3236971,97.9927403 C14.3236971,99.1036364 15.2198311,100 16.3252684,100 L83.6723754,100 C84.7718159,100 85.6739467,99.1013192 85.6739467,97.9927403 L85.6739467,49.5894942 L98.9644717,49.5894942 C100.07518,49.5894942 100.329199,48.9622992 99.5470125,48.188615 L81.9912472,30.823672 L81.9912472,7.00834035 L67.9944411,7.00834035 L67.9944411,16.9790042 L67.9944411,16.9790042 Z" id="Layer-1" fill="#DBECFF"></path>
                    <path d="M36,71.125 C36,71.125 36,58 50.5,58 C65,58 65,71.125 65,71.125 L65,100 L36,100 L36,71.125 Z" id="Layer-2"></path>
                </g>
            </g>
        </g>
    </g>
</svg>