<?xml version="1.0" encoding="UTF-8"?>
<svg width="84px" height="104px" viewBox="0 0 84 104" version="1.1" xmlns="http://www.w3.org/2000/svg" xmlns:xlink="http://www.w3.org/1999/xlink">
    <!-- Generator: Sketch 46.2 (44496) - http://www.bohemiancoding.com/sketch -->
    <title>interface-27</title>
    <desc>Created with Sketch.</desc>
    <defs></defs>
    <g id="ALL" stroke="none" stroke-width="1" fill="none" fill-rule="evenodd" stroke-linecap="round" stroke-linejoin="round">
        <g id="Primary" transform="translate(-853.000000, -798.000000)" stroke="#1989FB" stroke-width="3.5">
            <g id="Group-15" transform="translate(200.000000, 200.000000)">
                <g id="interface-27" transform="translate(655.000000, 600.000000)">
                    <path d="M73,22 L73,22 L73,95.0045533 C73,97.7634624 70.7662434,100 67.9986681,100 L12.0013319,100 C9.23917258,100 7,97.7658677 7,95.0045533 L7,22" id="Layer-1" fill="#DBECFF"></path>
                    <path d="M20,14 L20,7 L20,7 C20,3.13400675 23.1387329,0 26.9903412,0 L53.0096588,0 C56.8703176,0 60,3.14187327 60,7 L60,14" id="Layer-2"></path>
                    <rect id="Layer-3" x="0" y="14" width="80" height="8" rx="1"></rect>
                    <path d="M41,85.9519991 L41,35.4430609" id="Layer-4"></path>
                    <path d="M56,85.9519991 L56,35.4430609" id="Layer-5"></path>
                    <path d="M26,85.9519991 L26,35.4430609" id="Layer-6"></path>
                </g>
            </g>
        </g>
    </g>
</svg>