<?xml version="1.0" encoding="UTF-8"?>
<svg width="104px" height="104px" viewBox="0 0 104 104" version="1.1" xmlns="http://www.w3.org/2000/svg" xmlns:xlink="http://www.w3.org/1999/xlink">
    <!-- Generator: Sketch 46.2 (44496) - http://www.bohemiancoding.com/sketch -->
    <title>multimedia-15</title>
    <desc>Created with Sketch.</desc>
    <defs></defs>
    <g id="ALL" stroke="none" stroke-width="1" fill="none" fill-rule="evenodd" stroke-linecap="round" stroke-linejoin="round">
        <g id="Primary" transform="translate(-2117.000000, -5981.000000)" stroke="#1989FB" stroke-width="3.5">
            <g id="Group-15" transform="translate(200.000000, 200.000000)">
                <g id="multimedia-15" transform="translate(1919.000000, 5783.000000)">
                    <rect id="Layer-1" fill="#DBECFF" x="0" y="0" width="100" height="100"></rect>
                    <polygon id="Layer-2" fill="#DBECFF" points="46 0 29 0 33 0 33 60 25 60 25 100 50 100 50 60 42 60 42 0"></polygon>
                    <polygon id="Layer-3" fill="#DBECFF" points="71 0 54 0 58 0 58 60 50 60 50 100 75 100 75 60 67 60 67 0"></polygon>
                    <rect id="Layer-4" fill="#FFFFFF" x="17" y="0" width="16" height="60"></rect>
                    <rect id="Layer-5" fill="#FFFFFF" x="42" y="0" width="16" height="60"></rect>
                    <rect id="Layer-6" fill="#FFFFFF" x="67" y="0" width="16" height="60"></rect>
                </g>
            </g>
        </g>
    </g>
</svg>