<?xml version="1.0" encoding="UTF-8"?>
<svg width="104px" height="84px" viewBox="0 0 104 84" version="1.1" xmlns="http://www.w3.org/2000/svg" xmlns:xlink="http://www.w3.org/1999/xlink">
    <!-- Generator: Sketch 46.2 (44496) - http://www.bohemiancoding.com/sketch -->
    <title>multimedia-6</title>
    <desc>Created with Sketch.</desc>
    <defs></defs>
    <g id="ALL" stroke="none" stroke-width="1" fill="none" fill-rule="evenodd" stroke-linecap="round" stroke-linejoin="round">
        <g id="Primary" transform="translate(-3067.000000, -5681.000000)" stroke="#1989FB" stroke-width="3.5">
            <g id="Group-15" transform="translate(200.000000, 200.000000)">
                <g id="multimedia-6" transform="translate(2869.000000, 5483.000000)">
                    <path d="M98.2758621,0 L81.0344828,0 L18.9655172,0 L1.72413793,0 C0.772413793,0 0,0.777391304 0,1.73913043 L0,20.8695652 L0,40 L0,59.1304348 L0,78.2608696 C0,79.2226087 0.772413793,80 1.72413793,80 L18.9655172,80 L81.0344828,80 L98.2758621,80 C99.2275862,80 100,79.2226087 100,78.2608696 L100,59.1304348 L100,40 L100,20.8695652 L100,1.73913043 C100,0.777391304 99.2275862,0 98.2758621,0 L98.2758621,0 Z" id="Layer-1" fill="#DBECFF"></path>
                    <polygon id="Layer-2" fill="#FFFFFF" points="63.2167969 41 42 56 42 26"></polygon>
                    <rect id="Layer-3" fill="#DBECFF" x="80" y="0" width="20" height="20"></rect>
                    <rect id="Layer-4" fill="#DBECFF" x="0" y="0" width="20" height="20"></rect>
                    <rect id="Layer-5" fill="#DBECFF" x="80" y="20" width="20" height="20"></rect>
                    <rect id="Layer-6" fill="#DBECFF" x="0" y="20" width="20" height="20"></rect>
                    <rect id="Layer-7" fill="#DBECFF" x="80" y="40" width="20" height="20"></rect>
                    <rect id="Layer-8" fill="#DBECFF" x="0" y="40" width="20" height="20"></rect>
                    <rect id="Layer-9" fill="#DBECFF" x="80" y="60" width="20" height="20"></rect>
                    <rect id="Layer-10" fill="#DBECFF" x="0" y="60" width="20" height="20"></rect>
                </g>
            </g>
        </g>
    </g>
</svg>