<?xml version="1.0" encoding="UTF-8"?>
<svg width="64px" height="104px" viewBox="0 0 64 104" version="1.1" xmlns="http://www.w3.org/2000/svg" xmlns:xlink="http://www.w3.org/1999/xlink">
    <!-- Generator: Sketch 46.2 (44496) - http://www.bohemiancoding.com/sketch -->
    <title>multimedia-34</title>
    <desc>Created with Sketch.</desc>
    <defs></defs>
    <g id="ALL" stroke="none" stroke-width="1" fill="none" fill-rule="evenodd" stroke-linecap="round" stroke-linejoin="round">
        <g id="Primary" transform="translate(-545.000000, -6581.000000)" stroke="#1989FB" stroke-width="3.5">
            <g id="Group-15" transform="translate(200.000000, 200.000000)">
                <g id="multimedia-34" transform="translate(347.000000, 6383.000000)">
                    <rect id="Layer-1" fill="#DBECFF" x="10" y="0" width="40" height="70" rx="20"></rect>
                    <path d="M10,20 L20,20" id="Layer-2" fill="#DBECFF"></path>
                    <path d="M10,30 L20,30" id="Layer-3" fill="#DBECFF"></path>
                    <path d="M10,40 L20,40" id="Layer-4" fill="#DBECFF"></path>
                    <path d="M10,50 L20,50" id="Layer-5" fill="#DBECFF"></path>
                    <path d="M40,50 L50,50" id="Layer-6" fill="#DBECFF"></path>
                    <path d="M40,40 L50,40" id="Layer-7" fill="#DBECFF"></path>
                    <path d="M40,30 L50,30" id="Layer-8" fill="#DBECFF"></path>
                    <path d="M40,20 L50,20" id="Layer-9" fill="#DBECFF"></path>
                    <path d="M60,49.9927367 C60,66.5652906 46.5721855,80 30,80 L30,80 C13.4314575,80 0,66.5673744 0,49.9927367" id="Layer-10"></path>
                    <path d="M30,80 L30,100" id="Layer-11" fill="#DBECFF"></path>
                    <path d="M10,100 L50,100" id="Layer-12" fill="#DBECFF"></path>
                    <path d="M0,50 L3,50" id="Layer-13" fill="#DBECFF"></path>
                    <path d="M57,50 L60,50" id="Layer-14" fill="#DBECFF"></path>
                </g>
            </g>
        </g>
    </g>
</svg>