<?xml version="1.0" encoding="UTF-8"?>
<svg width="74px" height="80px" viewBox="0 0 74 80" version="1.1" xmlns="http://www.w3.org/2000/svg" xmlns:xlink="http://www.w3.org/1999/xlink">
    <!-- Generator: Sketch 46.2 (44496) - http://www.bohemiancoding.com/sketch -->
    <title>multimedia-4</title>
    <desc>Created with Sketch.</desc>
    <defs></defs>
    <g id="ALL" stroke="none" stroke-width="1" fill="none" fill-rule="evenodd" stroke-linecap="round" stroke-linejoin="round">
        <g id="Primary" transform="translate(-2447.000000, -5681.000000)" stroke="#1989FB" stroke-width="3.5">
            <g id="Group-15" transform="translate(200.000000, 200.000000)">
                <g id="multimedia-4" transform="translate(2249.000000, 5483.000000)">
                    <path d="M15,53 L2.99942248,53 C1.34288718,53 0,51.6526814 0,49.9999809 L0,26.0000191 L0,26.0000191 C0,24.3431543 1.34435073,23 2.99942248,23 L15,23" id="Layer-1" fill="#FFFFFF"></path>
                    <path d="M41.1547359,0.941677165 C43.2784166,-0.827905208 45,-0.0318034532 45,2.72842698 L45,73.0157762 C45,75.7721532 43.2793189,76.5728602 41.1547359,74.802526 L15,53.0087794 L15,22.7354238 L41.1547359,0.941677165 Z" id="Layer-2" fill="#DBECFF"></path>
                    <path d="M60,48 L60,48 C65.5228475,48 70,43.5228475 70,38 C70,32.4771525 65.5228475,28 60,28" id="Layer-3"></path>
                </g>
            </g>
        </g>
    </g>
</svg>