<?xml version="1.0" encoding="UTF-8"?>
<svg width="104px" height="104px" viewBox="0 0 104 104" version="1.1" xmlns="http://www.w3.org/2000/svg" xmlns:xlink="http://www.w3.org/1999/xlink">
    <!-- Generator: Sketch 46.2 (44496) - http://www.bohemiancoding.com/sketch -->
    <title>office-9</title>
    <desc>Created with Sketch.</desc>
    <defs></defs>
    <g id="ALL" stroke="none" stroke-width="1" fill="none" fill-rule="evenodd" stroke-linecap="round" stroke-linejoin="round">
        <g id="Primary" transform="translate(-3382.000000, -15066.000000)" stroke="#1989FB" stroke-width="3.5">
            <g id="Group-15" transform="translate(200.000000, 200.000000)">
                <g id="office-9" transform="translate(3184.000000, 14868.000000)">
                    <polygon id="Layer-1" fill="#FFFFFF" points="85 55 85 8 15 8 15 55 30 55 30 65 70 65 70 55"></polygon>
                    <path d="M30,55 L0,55 L0,94.0010878 C0,97.319808 2.68318653,100 5.99306484,100 L94.0069352,100 C97.312319,100 100,97.3141955 100,94.0010878 L100,55 L70,55 L70,65 L30,65 L30,55 L30,55 Z" id="Layer-2" fill="#DBECFF"></path>
                    <rect id="Layer-3" fill="#DBECFF" x="20" y="0" width="60" height="8"></rect>
                    <polyline id="Layer-4" fill="#DBECFF" points="70 55 100 55 85 35.1837135 85 55 70 55"></polyline>
                    <polyline id="Layer-5" fill="#DBECFF" points="15 55 15 36.2463372 15 36.2463372 15 36.2463372 0 55 30 55"></polyline>
                </g>
            </g>
        </g>
    </g>
</svg>