<?xml version="1.0" encoding="UTF-8"?>
<svg width="98px" height="99px" viewBox="0 0 98 99" version="1.1" xmlns="http://www.w3.org/2000/svg" xmlns:xlink="http://www.w3.org/1999/xlink">
    <!-- Generator: Sketch 46.2 (44496) - http://www.bohemiancoding.com/sketch -->
    <title>office-34</title>
    <desc>Created with Sketch.</desc>
    <defs></defs>
    <g id="ALL" stroke="none" stroke-width="1" fill="none" fill-rule="evenodd" stroke-linecap="round" stroke-linejoin="round">
        <g id="Primary" transform="translate(-3701.000000, -15693.000000)" stroke="#1989FB" stroke-width="3.5">
            <g id="Group-15" transform="translate(200.000000, 200.000000)">
                <g id="office-34" transform="translate(3502.000000, 15494.000000)">
                    <polygon id="Layer-1" fill="#DBECFF" points="32.50239 31.1112594 64.9384809 63.5473503 38.7493408 89.7364904 6.31324996 57.3003995"></polygon>
                    <path d="M6.46942373,57.3003995 L38.9055146,89.7364904 L34.9771436,93.6648614 C32.8075642,95.8344408 29.2933668,95.8378265 27.1200737,93.6645335 L2.54138059,69.0858404 C0.371620115,66.9160799 0.375887983,63.3939352 2.54105272,61.2287705 L6.46942373,57.3003995 L6.46942373,57.3003995 Z" id="Layer-2" fill="#FFFFFF"></path>
                    <path d="M60.7223593,2.62098944 C63.0674459,0.275902759 66.8645136,0.270833654 69.2089667,2.61528682 L93.1641528,26.5704728 C95.50609,28.9124101 95.5030579,32.7124725 93.1584501,35.0570803 L64.6681801,63.5473503 L32.2320892,31.1112594 L60.7223593,2.62098944 L60.7223593,2.62098944 Z" id="Layer-3" fill="#DBECFF"></path>
                </g>
            </g>
        </g>
    </g>
</svg>