<?xml version="1.0" encoding="UTF-8"?>
<svg width="114px" height="114px" viewBox="0 0 114 114" version="1.1" xmlns="http://www.w3.org/2000/svg" xmlns:xlink="http://www.w3.org/1999/xlink">
    <!-- Generator: Sketch 46.2 (44496) - http://www.bohemiancoding.com/sketch -->
    <title>office-16</title>
    <desc>Created with Sketch.</desc>
    <defs></defs>
    <g id="ALL" stroke="none" stroke-width="1" fill="none" fill-rule="evenodd" stroke-linecap="round" stroke-linejoin="round">
        <g id="Primary" transform="translate(-1792.000000, -15376.000000)" stroke="#1989FB" stroke-width="3.5">
            <g id="Group-15" transform="translate(200.000000, 200.000000)">
                <g id="office-16" transform="translate(1594.000000, 15178.000000)">
                    <path d="M45.0018309,100 L89.887207,100 L109.789062,80 L109.789062,0 L10.1025393,0 L10.1025391,64.9215572 C14.263135,61.8294821 19.4179183,60 25,60 C38.8071187,60 50,71.1928813 50,85 C50,90.6280296 48.1402759,95.8216973 45.0018309,100 L45.0018309,100 Z" id="Layer-1" fill="#DBECFF"></path>
                    <polygon id="Layer-2" fill="#FFFFFF" points="90 100 110 80 90 80"></polygon>
                    <path d="M25,60 C38.8071187,60 50,71.1928813 50,85 C50,98.8071187 38.8071187,110 25,110 C11.1928813,110 0,98.8071187 0,85 C0,71.1928813 11.1928813,60 25,60 L25,60 Z" id="Layer-3" fill="#FFFFFF"></path>
                    <polyline id="Layer-4" points="14.710243 86.4679202 22.1731038 94 35.6939307 80.4352254"></polyline>
                </g>
            </g>
        </g>
    </g>
</svg>