<?xml version="1.0" encoding="UTF-8"?>
<svg width="109px" height="109px" viewBox="0 0 109 109" version="1.1" xmlns="http://www.w3.org/2000/svg" xmlns:xlink="http://www.w3.org/1999/xlink">
    <!-- Generator: Sketch 46.2 (44496) - http://www.bohemiancoding.com/sketch -->
    <title>business-17</title>
    <desc>Created with Sketch.</desc>
    <defs></defs>
    <g id="ALL" stroke="none" stroke-width="1" fill="none" fill-rule="evenodd" stroke-linecap="round" stroke-linejoin="round">
        <g id="Primary" transform="translate(-840.000000, -11428.000000)" stroke="#DC3545" stroke-width="3.5">
            <g id="Group-15" transform="translate(200.000000, 200.000000)">
                <g id="business-17" transform="translate(642.000000, 11230.000000)">
                    <path d="M5.11389416,59.9535356 L15.1192652,59.9535356 C23.759402,59.9535356 30.5782496,52.2120734 35.2003199,46.5639558 C40.17337,40.486945 42.6322637,39.1695249 45.1514918,38.5706076 C47.7814275,37.9453708 50.4562926,38.2113494 55.1138942,39.9200323 C64.2330348,43.2654708 68.1075465,35.1444677 75.334109,27.5722338 C82.5606715,20 89.7599244,20 94.7764918,20 L105.113894,20 L105.113894,100 L5.11389416,100 L5.11389416,59.9535356 Z" id="Layer-1" fill="#FFEEEF"></path>
                    <polyline id="Layer-2" points="105.113894 100 5.11389416 100 5.11389416 0 5.11389416 0"></polyline>
                    <path d="M5.11389416,10 L0.113894156,10" id="Layer-3" fill="#FFEEEF"></path>
                    <path d="M5.11389416,30 L0.113894156,30" id="Layer-4" fill="#FFEEEF"></path>
                    <path d="M5.11389416,50 L0.113894156,50" id="Layer-5" fill="#FFEEEF"></path>
                    <path d="M5.11389416,70 L0.113894156,70" id="Layer-6" fill="#FFEEEF"></path>
                    <path d="M5.11389416,90 L0.113894156,90" id="Layer-7" fill="#FFEEEF"></path>
                    <path d="M95.1138942,105 L95.1138942,100" id="Layer-8" fill="#FFEEEF"></path>
                    <path d="M75.1138942,105 L75.1138942,100" id="Layer-9" fill="#FFEEEF"></path>
                    <path d="M55.1138942,105 L55.1138942,100" id="Layer-10" fill="#FFEEEF"></path>
                    <path d="M35.1138942,105 L35.1138942,100" id="Layer-11" fill="#FFEEEF"></path>
                    <path d="M15.1138942,105 L15.1138942,100" id="Layer-12" fill="#FFEEEF"></path>
                </g>
            </g>
        </g>
    </g>
</svg>