<?xml version="1.0" encoding="UTF-8"?>
<svg width="104px" height="104px" viewBox="0 0 104 104" version="1.1" xmlns="http://www.w3.org/2000/svg" xmlns:xlink="http://www.w3.org/1999/xlink">
    <!-- Generator: Sketch 46.2 (44496) - http://www.bohemiancoding.com/sketch -->
    <title>business-13</title>
    <desc>Created with Sketch.</desc>
    <defs></defs>
    <g id="ALL" stroke="none" stroke-width="1" fill="none" fill-rule="evenodd" stroke-linecap="round" stroke-linejoin="round">
        <g id="Primary" transform="translate(-3382.000000, -11118.000000)" stroke="#DC3545" stroke-width="3.5">
            <g id="Group-15" transform="translate(200.000000, 200.000000)">
                <g id="business-13" transform="translate(3184.000000, 10920.000000)">
                    <rect id="Layer-1" fill="#FFEEEF" x="0" y="0" width="100" height="60"></rect>
                    <path d="M20,50 L80,50 C80,44.4771525 84.4771525,40 90,40 L90,20 C84.4771525,20 80,15.5228475 80,10 L20,10 C20,15.5228475 15.5228475,20 10,20 L10,40 C15.5228475,40 20,44.4771525 20,50 L20,50 Z" id="Layer-2" fill="#FFEEEF"></path>
                    <ellipse id="Layer-3" fill="#FFFFFF" cx="50" cy="30" rx="15" ry="20"></ellipse>
                    <polygon id="Layer-4" fill="#FFFFFF" points="44.1696628 85.41804 36 85.41804 49.9999997 100 64 85.41804 55.854039 85.41804 55.854039 68 44.1696628 68"></polygon>
                    <circle id="Layer-5" fill="#FFEEEF" cx="25" cy="30" r="3"></circle>
                    <circle id="Layer-6" fill="#FFEEEF" cx="75" cy="30" r="3"></circle>
                </g>
            </g>
        </g>
    </g>
</svg>