<?xml version="1.0" encoding="UTF-8"?>
<svg width="104px" height="104px" viewBox="0 0 104 104" version="1.1" xmlns="http://www.w3.org/2000/svg" xmlns:xlink="http://www.w3.org/1999/xlink">
    <!-- Generator: Sketch 46.2 (44496) - http://www.bohemiancoding.com/sketch -->
    <title>communications-32</title>
    <desc>Created with Sketch.</desc>
    <defs></defs>
    <g id="ALL" stroke="none" stroke-width="1" fill="none" fill-rule="evenodd" stroke-linecap="round" stroke-linejoin="round">
        <g id="Primary" transform="translate(-1165.000000, -10508.000000)" stroke="#DC3545" stroke-width="3.5">
            <g id="Group-15" transform="translate(200.000000, 200.000000)">
                <g id="communications-32" transform="translate(967.000000, 10310.000000)">
                    <polygon id="Layer-1" fill="#FFEEEF" points="9.99804688 29 0 29 0 100 100 100 100 29 89.9980469 29 89.9980469 37.5936934 56.2448358 64.9640288 50.0344552 60 43.8240746 64.9640288 9.99804688 37.5346467"></polygon>
                    <polyline id="Layer-2" fill="#FFEEEF" points="100 30.1449275 99.1071429 30.1449275 56.205036 64.9640288 50 60 43.794964 64.9640288 0.892857143 30.1449275 0 30.1449275"></polyline>
                    <polygon id="Layer-3" fill="#FFEEEF" points="50 60 0 100 100 100"></polygon>
                    <polygon id="Layer-4" fill="#FFFFFF" points="89.9980469 37.5936934 89.9980469 0 9.99804688 0 9.99804688 37.5346467 43.8240746 64.9640288 50.0344552 60 56.2448358 64.9640288 89.9980469 37.5936934"></polygon>
                </g>
            </g>
        </g>
    </g>
</svg>