<?xml version="1.0" encoding="UTF-8"?>
<svg width="104px" height="104px" viewBox="0 0 104 104" version="1.1" xmlns="http://www.w3.org/2000/svg" xmlns:xlink="http://www.w3.org/1999/xlink">
    <!-- Generator: Sketch 46.2 (44496) - http://www.bohemiancoding.com/sketch -->
    <title>devices-36</title>
    <desc>Created with Sketch.</desc>
    <defs></defs>
    <g id="ALL" stroke="none" stroke-width="1" fill="none" fill-rule="evenodd" stroke-linecap="round" stroke-linejoin="round">
        <g id="Primary" transform="translate(-1797.000000, -7782.000000)" stroke="#DC3545" stroke-width="3.5">
            <g id="Group-15" transform="translate(200.000000, 200.000000)">
                <g id="devices-36" transform="translate(1599.000000, 7584.000000)">
                    <path d="M10,40 L30,40" id="Layer-1"></path>
                    <path d="M70,40 L90,40" id="Layer-2"></path>
                    <rect id="Layer-3" fill="#FFFFFF" x="0" y="0" width="40" height="30" rx="1"></rect>
                    <rect id="Layer-4" fill="#FFFFFF" x="60" y="0" width="40" height="30" rx="1"></rect>
                    <rect id="Layer-5" fill="#FFEEEF" x="15" y="30" width="10" height="10"></rect>
                    <rect id="Layer-6" fill="#FFEEEF" x="75" y="30" width="10" height="10"></rect>
                    <path d="M0,95 L14.5,95" id="Layer-7"></path>
                    <path d="M85,95 L100,95" id="Layer-8"></path>
                    <path d="M25,95 L74.5,95" id="Layer-9"></path>
                    <path d="M20,83 L20,47" id="Layer-10" stroke-dasharray="1,6"></path>
                    <path d="M80,83 L80,47" id="Layer-11" stroke-dasharray="1,6"></path>
                    <circle id="Layer-12" fill="#DC3545" cx="80" cy="95" r="5"></circle>
                    <circle id="Layer-13" fill="#DC3545" cx="20" cy="95" r="5"></circle>
                </g>
            </g>
        </g>
    </g>
</svg>