<?xml version="1.0" encoding="UTF-8"?>
<svg width="104px" height="80px" viewBox="0 0 104 80" version="1.1" xmlns="http://www.w3.org/2000/svg" xmlns:xlink="http://www.w3.org/1999/xlink">
    <!-- Generator: Sketch 46.2 (44496) - http://www.bohemiancoding.com/sketch -->
    <title>devices-12</title>
    <desc>Created with Sketch.</desc>
    <defs></defs>
    <g id="ALL" stroke="none" stroke-width="1" fill="none" fill-rule="evenodd" stroke-linecap="round" stroke-linejoin="round">
        <g id="Primary" transform="translate(-1797.000000, -7182.000000)" stroke="#DC3545" stroke-width="3.5">
            <g id="Group-15" transform="translate(200.000000, 200.000000)">
                <g id="devices-12" transform="translate(1599.000000, 6984.000000)">
                    <rect id="Layer-1" fill="#FFEEEF" x="0" y="6" width="100" height="70" rx="3"></rect>
                    <path d="M10,3 C10,1.34314575 11.3486445,0 13.0003297,0 L16.9996703,0 C18.6567066,0 20,1.34651712 20,3 L20,6 L10,6 L10,3 Z" id="Layer-2" fill="#FFEEEF"></path>
                    <path d="M0.148716291,21 L10.1487163,21" id="Layer-3" fill="#FFEEEF"></path>
                    <path d="M0.148716291,31 L10.1487163,31" id="Layer-4" fill="#FFEEEF"></path>
                    <path d="M0.148716291,41 L10.1487163,41" id="Layer-5" fill="#FFEEEF"></path>
                    <circle id="Layer-6" fill="#FFEEEF" cx="65" cy="41" r="25"></circle>
                    <circle id="Layer-7" fill="#FFFFFF" cx="65" cy="41" r="18"></circle>
                    <path d="M62,31.75 C59.6358032,31.75 55.75,35.4523926 55.75,38" id="Layer-8" fill="#FFEEEF"></path>
                </g>
            </g>
        </g>
    </g>
</svg>