<?xml version="1.0" encoding="UTF-8"?>
<svg width="69px" height="104px" viewBox="0 0 69 104" version="1.1" xmlns="http://www.w3.org/2000/svg" xmlns:xlink="http://www.w3.org/1999/xlink">
    <!-- Generator: Sketch 46.2 (44496) - http://www.bohemiancoding.com/sketch -->
    <title>devices-39</title>
    <desc>Created with Sketch.</desc>
    <defs></defs>
    <g id="ALL" stroke="none" stroke-width="1" fill="none" fill-rule="evenodd" stroke-linecap="round" stroke-linejoin="round">
        <g id="Primary" transform="translate(-2764.000000, -7782.000000)" stroke="#DC3545" stroke-width="3.5">
            <g id="Group-15" transform="translate(200.000000, 200.000000)">
                <g id="devices-39" transform="translate(2566.000000, 7584.000000)">
                    <rect id="Layer-1" fill="#FFEEEF" x="0" y="18" width="60" height="64" rx="8"></rect>
                    <path d="M53,18 C53,18 46.6717129,16.5058594 45.9914038,12.3242188 C45.5182896,9.41613893 44.9212683,4.66625977 44.7033453,2.55395508 C44.4854224,0.441650391 42.6793405,0 41.7938916,0 L30,0 L18.2061084,0 C17.3206595,0 15.5145776,0.441650391 15.2966547,2.55395508 C15.0787317,4.66625977 14.4817104,9.41613893 14.0085962,12.3242188 C13.3282871,16.5058594 7,18 7,18 L53,18 Z" id="Layer-2" fill="#FFEEEF"></path>
                    <path d="M53,82 C53,82 46.6717129,83.4941406 45.9914038,87.6757812 C45.5182896,90.5838611 44.9212683,95.3337402 44.7033453,97.4460449 C44.4854224,99.5583496 42.6793405,100 41.7938916,100 L30,100 L18.2061084,100 C17.3206595,100 15.5145776,99.5583496 15.2966547,97.4460449 C15.0787317,95.3337402 14.4817104,90.5838611 14.0085962,87.6757812 C13.3282871,83.4941406 7,82 7,82 L53,82 Z" id="Layer-3" fill="#FFEEEF"></path>
                    <rect id="Layer-4" fill="#FFEEEF" x="60" y="30" width="5" height="12"></rect>
                    <circle id="Layer-5" fill="#FFFFFF" cx="30" cy="50" r="5"></circle>
                    <circle id="Layer-6" fill="#FFFFFF" cx="47" cy="50" r="5"></circle>
                    <circle id="Layer-7" fill="#FFFFFF" cx="13" cy="50" r="5"></circle>
                    <path d="M39,40 C41.7614237,40 44,37.7614237 44,35 C44,32.2385763 41.7614237,30 39,30 C36.2385763,30 34,32.2385763 34,35 C34,37.7614237 36.2385763,40 39,40 Z" id="Layer-8" fill="#FFFFFF"></path>
                    <path d="M21,40 C23.7614237,40 26,37.7614237 26,35 C26,32.2385763 23.7614237,30 21,30 C18.2385763,30 16,32.2385763 16,35 C16,37.7614237 18.2385763,40 21,40 Z" id="Layer-9" fill="#FFFFFF"></path>
                    <path d="M39,70 C41.7614237,70 44,67.7614237 44,65 C44,62.2385763 41.7614237,60 39,60 C36.2385763,60 34,62.2385763 34,65 C34,67.7614237 36.2385763,70 39,70 Z" id="Layer-10" fill="#FFFFFF"></path>
                    <path d="M21,70 C23.7614237,70 26,67.7614237 26,65 C26,62.2385763 23.7614237,60 21,60 C18.2385763,60 16,62.2385763 16,65 C16,67.7614237 18.2385763,70 21,70 Z" id="Layer-11" fill="#FFFFFF"></path>
                </g>
            </g>
        </g>
    </g>
</svg>