<?xml version="1.0" encoding="UTF-8"?>
<svg width="104px" height="104px" viewBox="0 0 104 104" version="1.1" xmlns="http://www.w3.org/2000/svg" xmlns:xlink="http://www.w3.org/1999/xlink">
    <!-- Generator: Sketch 46.2 (44496) - http://www.bohemiancoding.com/sketch -->
    <title>devices-8</title>
    <desc>Created with Sketch.</desc>
    <defs></defs>
    <g id="ALL" stroke="none" stroke-width="1" fill="none" fill-rule="evenodd" stroke-linecap="round" stroke-linejoin="round">
        <g id="Primary" transform="translate(-525.000000, -7182.000000)" stroke="#DC3545" stroke-width="3.5">
            <g id="Group-15" transform="translate(200.000000, 200.000000)">
                <g id="devices-8" transform="translate(327.000000, 6984.000000)">
                    <rect id="Layer-1" fill="#FFEEEF" x="47" y="39" width="53" height="42" rx="3"></rect>
                    <path d="M40,20 L40,97.0099126 C40,98.6612923 38.6576906,100 36.9934988,100 L3.0065012,100 C1.34605644,100 0,98.6616553 0,97.0099126 L0,20 C0,31.045695 8.954305,40 20,40 C31.045695,40 40,31.045695 40,20 L40,20 Z" id="Layer-2" fill="#FFEEEF"></path>
                    <circle id="Layer-3" fill="#FFEEEF" cx="20" cy="20" r="20"></circle>
                    <circle id="Layer-4" fill="#FFFFFF" cx="20" cy="20" r="12"></circle>
                    <rect id="Layer-5" fill="#FFEEEF" x="40" y="50" width="7" height="20"></rect>
                    <rect id="Layer-6" fill="#FFEEEF" x="10" y="80" width="20" height="10" rx="5"></rect>
                    <circle id="Layer-7" fill="#FFEEEF" cx="20" cy="60" r="3"></circle>
                </g>
            </g>
        </g>
    </g>
</svg>