<?xml version="1.0" encoding="UTF-8"?>
<svg width="114px" height="114px" viewBox="0 0 114 114" version="1.1" xmlns="http://www.w3.org/2000/svg" xmlns:xlink="http://www.w3.org/1999/xlink">
    <!-- Generator: Sketch 46.2 (44496) - http://www.bohemiancoding.com/sketch -->
    <title>e-commerce-34</title>
    <desc>Created with Sketch.</desc>
    <defs></defs>
    <g id="ALL" stroke="none" stroke-width="1" fill="none" fill-rule="evenodd" stroke-linecap="round" stroke-linejoin="round">
        <g id="Primary" transform="translate(-1792.000000, -2928.000000)" stroke="#DC3545" stroke-width="3.5">
            <g id="Group-15" transform="translate(200.000000, 200.000000)">
                <g id="e-commerce-34" transform="translate(1594.000000, 2730.000000)">
                    <polygon id="Layer-1" fill="#FFEEEF" points="49.9370098 40.0244141 49.9370098 100.024414 3.90798505e-14 80 3.90798505e-14 20"></polygon>
                    <path d="M62.147784,95.1532322 L50,100.024414 L50,40.0244141 L99.9370098,20 L99.9370098,64.9510096 C95.7695517,61.8411028 90.5997821,60 85,60 C71.1928813,60 60,71.1928813 60,85 C60,88.6149314 60.7672482,92.0506623 62.147784,95.1532322 L62.147784,95.1532322 Z" id="Layer-2" fill="#FFEEEF"></path>
                    <polygon id="Layer-3" fill="#FFEEEF" points="49.9670825 0 100 20 49.9670825 40 0 20"></polygon>
                    <polygon id="Layer-4" fill="#FFEEEF" points="74.9835322 30.0055301 100.013825 20 49.9809079 0 25 9.99894595"></polygon>
                    <circle id="Layer-5" fill="#FFFFFF" cx="85" cy="85" r="25"></circle>
                    <path d="M94.991378,75.8492424 L75.8994949,94.9411255" id="Layer-6" fill="#FFEEEF"></path>
                    <path d="M94.991378,94.9411255 L75.8994949,75.8492424" id="Layer-7" fill="#FFEEEF"></path>
                </g>
            </g>
        </g>
    </g>
</svg>