<?xml version="1.0" encoding="UTF-8"?>
<svg width="104px" height="104px" viewBox="0 0 104 104" version="1.1" xmlns="http://www.w3.org/2000/svg" xmlns:xlink="http://www.w3.org/1999/xlink">
    <!-- Generator: Sketch 46.2 (44496) - http://www.bohemiancoding.com/sketch -->
    <title>gestures-22</title>
    <desc>Created with Sketch.</desc>
    <defs></defs>
    <g id="ALL" stroke="none" stroke-width="1" fill="none" fill-rule="evenodd" stroke-linecap="round" stroke-linejoin="round">
        <g id="Primary" transform="translate(-1797.000000, -22362.000000)" stroke="#DC3545" stroke-width="3.5">
            <g id="Group-15" transform="translate(200.000000, 200.000000)">
                <g id="gestures-22" transform="translate(1599.000000, 22164.000000)">
                    <polyline id="Layer-1" points="20.4436508 0.644660941 0.644660941 0.644660941 0.644660941 20.4436508"></polyline>
                    <polyline id="Layer-2" transform="translate(89.455844, 10.544156) scale(-1, 1) translate(-89.455844, -10.544156) " points="99.3553391 0.644660941 79.5563492 0.644660941 79.5563492 20.4436508"></polyline>
                    <polyline id="Layer-3" transform="translate(89.455844, 89.455844) scale(-1, -1) translate(-89.455844, -89.455844) " points="99.3553391 79.5563492 79.5563492 79.5563492 79.5563492 99.3553391"></polyline>
                    <polyline id="Layer-4" transform="translate(10.544156, 89.455844) scale(1, -1) translate(-10.544156, -89.455844) " points="20.4436508 79.5563492 0.644660941 79.5563492 0.644660941 99.3553391"></polyline>
                    <path d="M26,50 L36,50" id="Layer-5" fill="#FFEEEF"></path>
                    <path d="M66,50 L76,50" id="Layer-6" fill="#FFEEEF"></path>
                    <path d="M51,35 L51,25" id="Layer-7" fill="#FFEEEF"></path>
                    <path d="M51,75 L51,65" id="Layer-8" fill="#FFEEEF"></path>
                    <path d="M61.6066017,60.6066017 C67.4644661,54.7487373 67.4644661,45.2512627 61.6066017,39.3933983 C55.7487373,33.5355339 46.2512627,33.5355339 40.3933983,39.3933983 C34.5355339,45.2512627 34.5355339,54.7487373 40.3933983,60.6066017 C46.2512627,66.4644661 55.7487373,66.4644661 61.6066017,60.6066017 L61.6066017,60.6066017 Z" id="Layer-9" fill="#FFEEEF"></path>
                </g>
            </g>
        </g>
    </g>
</svg>