<?xml version="1.0" encoding="UTF-8"?>
<svg width="104px" height="104px" viewBox="0 0 104 104" version="1.1" xmlns="http://www.w3.org/2000/svg" xmlns:xlink="http://www.w3.org/1999/xlink">
    <!-- Generator: Sketch 46.2 (44496) - http://www.bohemiancoding.com/sketch -->
    <title>interface-111x</title>
    <desc>Created with Sketch.</desc>
    <defs></defs>
    <g id="ALL" stroke="none" stroke-width="1" fill="none" fill-rule="evenodd" stroke-linecap="round" stroke-linejoin="round">
        <g id="Primary" transform="translate(-3382.000000, -198.000000)" stroke="#DC3545" stroke-width="3.5" fill="#FFEEEF">
            <g id="Group-15" transform="translate(200.000000, 200.000000)">
                <g id="interface-11" transform="translate(3184.000000, 0.000000)">
                    <path d="M0,0 L20,0 L20,20 L0,20 L0,0 L0,0 L0,0 Z M80,0 L100,0 L100,20 L80,20 L80,0 L80,0 L80,0 Z M40,0 L60,0 L60,20 L40,20 L40,0 L40,0 L40,0 Z M40,40 L60,40 L60,60 L40,60 L40,40 L40,40 L40,40 Z M80,40 L100,40 L100,60 L80,60 L80,40 L80,40 L80,40 Z M0,40 L20,40 L20,60 L0,60 L0,40 L0,40 L0,40 Z M0,80 L20,80 L20,100 L0,100 L0,80 L0,80 L0,80 Z M40,80 L60,80 L60,100 L40,100 L40,80 L40,80 L40,80 Z M100,80 L100,100 L80,100 L80,80 L100,80 Z" id="Layer-1"></path>
                </g>
            </g>
        </g>
    </g>
</svg>