<?xml version="1.0" encoding="UTF-8"?>
<svg width="104px" height="104px" viewBox="0 0 104 104" version="1.1" xmlns="http://www.w3.org/2000/svg" xmlns:xlink="http://www.w3.org/1999/xlink">
    <!-- Generator: Sketch 46.2 (44496) - http://www.bohemiancoding.com/sketch -->
    <title>layouts-29</title>
    <desc>Created with Sketch.</desc>
    <defs></defs>
    <g id="ALL" stroke="none" stroke-width="1" fill="none" fill-rule="evenodd" stroke-linecap="round" stroke-linejoin="round">
        <g id="Primary" transform="translate(-843.000000, -23865.000000)" stroke="#DC3545" stroke-width="3.5" fill="#FFEEEF">
            <g id="Group-15" transform="translate(200.000000, 200.000000)">
                <g id="layouts-29" transform="translate(645.000000, 23667.000000)">
                    <rect id="Layer-1" x="0" y="0" width="25" height="25"></rect>
                    <rect id="Layer-2" x="25" y="0" width="25" height="25"></rect>
                    <rect id="Layer-3" x="50" y="0" width="25" height="25"></rect>
                    <rect id="Layer-4" x="75" y="0" width="25" height="25"></rect>
                    <rect id="Layer-5" x="0" y="25" width="25" height="25"></rect>
                    <rect id="Layer-6" x="25" y="25" width="25" height="25"></rect>
                    <rect id="Layer-7" x="50" y="25" width="25" height="25"></rect>
                    <rect id="Layer-8" x="75" y="25" width="25" height="25"></rect>
                    <rect id="Layer-9" x="0" y="50" width="25" height="25"></rect>
                    <rect id="Layer-10" x="25" y="50" width="25" height="25"></rect>
                    <rect id="Layer-11" x="50" y="50" width="25" height="25"></rect>
                    <rect id="Layer-12" x="75" y="50" width="25" height="25"></rect>
                    <rect id="Layer-13" x="0" y="75" width="25" height="25"></rect>
                    <rect id="Layer-14" x="25" y="75" width="25" height="25"></rect>
                    <rect id="Layer-15" x="50" y="75" width="25" height="25"></rect>
                    <rect id="Layer-16" x="75" y="75" width="25" height="25"></rect>
                </g>
            </g>
        </g>
    </g>
</svg>