<?xml version="1.0" encoding="UTF-8"?>
<svg width="95px" height="104px" viewBox="0 0 95 104" version="1.1" xmlns="http://www.w3.org/2000/svg" xmlns:xlink="http://www.w3.org/1999/xlink">
    <!-- Generator: Sketch 46.2 (44496) - http://www.bohemiancoding.com/sketch -->
    <title>multimedia-26</title>
    <desc>Created with Sketch.</desc>
    <defs></defs>
    <g id="ALL" stroke="none" stroke-width="1" fill="none" fill-rule="evenodd" stroke-linecap="round" stroke-linejoin="round">
        <g id="Primary" transform="translate(-1802.000000, -6281.000000)" stroke="#DC3545" stroke-width="3.5">
            <g id="Group-15" transform="translate(200.000000, 200.000000)">
                <g id="multimedia-26" transform="translate(1603.000000, 6083.000000)">
                    <path d="M64.021781,32.256967 C60.383013,30.3055952 56.344201,28.9517711 52.0169636,28.3436175 C32.3282053,25.576543 14.1241561,39.2942781 11.3570815,58.9830364 C8.590007,78.6717947 22.3077421,96.8758439 41.9965004,99.6429185 L41.9965004,99.6429185 C61.6852587,102.409993 79.889308,88.6922579 82.6563825,69.0034996 C83.8421704,60.5661799 82.0006526,52.4015153 77.9592331,45.6075083" id="Layer-1" fill="#FFFFFF"></path>
                    <path d="M47,0 L47,12" id="Layer-2" fill="#FFEEEF"></path>
                    <path d="M63.1058285,2 L60,13.5911099" id="Layer-3" fill="#FFEEEF"></path>
                    <path d="M79,7 L73,17.3923048" id="Layer-4" fill="#FFEEEF"></path>
                    <path d="M92.2426407,16.9535117 L83.7573593,25.4387931" id="Layer-5" fill="#FFEEEF"></path>
                    <path d="M29.8941715,2 L33,13.5911099" id="Layer-6" fill="#FFEEEF"></path>
                    <path d="M14,7 L20,17.3923048" id="Layer-7" fill="#FFEEEF"></path>
                    <path d="M0.757359313,16.9535117 L9.24264069,25.4387931" id="Layer-8" fill="#FFEEEF"></path>
                    <path d="M44.038825,65.3628805 L71.0470714,38.354634" id="Layer-9" fill="#FFEEEF"></path>
                </g>
            </g>
        </g>
    </g>
</svg>