<?xml version="1.0" encoding="UTF-8"?>
<svg width="104px" height="104px" viewBox="0 0 104 104" version="1.1" xmlns="http://www.w3.org/2000/svg" xmlns:xlink="http://www.w3.org/1999/xlink">
    <!-- Generator: Sketch 46.2 (44496) - http://www.bohemiancoding.com/sketch -->
    <title>web-17</title>
    <desc>Created with Sketch.</desc>
    <defs></defs>
    <g id="ALL" stroke="none" stroke-width="1" fill="none" fill-rule="evenodd" stroke-linecap="round" stroke-linejoin="round">
        <g id="Primary" transform="translate(-1482.000000, -18728.000000)" stroke="#DC3545" stroke-width="3.5">
            <g id="Group-15" transform="translate(200.000000, 200.000000)">
                <g id="web-17" transform="translate(1284.000000, 18530.000000)">
                    <rect id="Layer-1" fill="#FFEEEF" x="0" y="0" width="100" height="100" rx="3"></rect>
                    <rect id="Layer-2" fill="#FFEEEF" x="0" y="0" width="100" height="100" rx="3"></rect>
                    <circle id="Layer-3" fill="#FFFFFF" cx="50" cy="57" r="31"></circle>
                    <path d="M50,26 L50,88" id="Layer-4" fill="#FFEEEF"></path>
                    <path d="M81,57 L19,57" id="Layer-5" fill="#FFEEEF"></path>
                    <path d="M50,26 C50,26 65.5926249,37.9752152 65.5926249,57 C65.5926249,76.0247848 50,88 50,88" id="Layer-6"></path>
                    <path d="M0,3.00947762 C0,1.34738902 1.33801252,0 2.99280137,0 L97.0071986,0 C98.6600772,0 100,1.33663106 100,3.00947762 L100,16 L0,16 L0,3.00947762 Z" id="Layer-7" fill="#FFEEEF"></path>
                    <path d="M7,8 L22.2800007,8" id="Layer-8" fill="#FFEEEF"></path>
                    <path d="M28.3,78.330565 C33.1132709,74.0936214 40.5526353,69.4 49.8903582,69.4 C59.3710807,69.4 66.8948558,74.23848 71.7,78.524881" id="Layer-9"></path>
                    <path d="M28.3,35.494316 C33.1132709,39.7312596 40.5526353,44.424881 49.8903582,44.424881 C59.3710807,44.424881 66.8948558,39.586401 71.7,35.3" id="Layer-10"></path>
                    <path d="M50.0926249,26 C50.0926249,26 34.5,37.9752152 34.5,57 C34.5,76.0247848 50.0926249,88 50.0926249,88" id="Layer-11"></path>
                </g>
            </g>
        </g>
    </g>
</svg>