<?xml version="1.0" encoding="UTF-8"?>
<svg width="104px" height="104px" viewBox="0 0 104 104" version="1.1" xmlns="http://www.w3.org/2000/svg" xmlns:xlink="http://www.w3.org/1999/xlink">
    <!-- Generator: Sketch 46.2 (44496) - http://www.bohemiancoding.com/sketch -->
    <title>web-11</title>
    <desc>Created with Sketch.</desc>
    <defs></defs>
    <g id="ALL" stroke="none" stroke-width="1" fill="none" fill-rule="evenodd" stroke-linecap="round" stroke-linejoin="round">
        <g id="Primary" transform="translate(-3382.000000, -18427.000000)" stroke="#DC3545" stroke-width="3.5">
            <g id="Group-15" transform="translate(200.000000, 200.000000)">
                <g id="web-11" transform="translate(3184.000000, 18229.000000)">
                    <rect id="Layer-1" fill="#FFEEEF" x="0" y="0" width="100" height="10"></rect>
                    <rect id="Layer-2" fill="#FFEEEF" x="5" y="10" width="90" height="72"></rect>
                    <path d="M0,82 L100,82" id="Layer-3" fill="#FFEEEF"></path>
                    <path d="M50,82 L50,92" id="Layer-4" fill="#FFEEEF"></path>
                    <circle id="Layer-5" cx="50" cy="95" r="5"></circle>
                    <path d="M46.5517241,27.8965517 C34.6490356,27.8965517 25,37.5455873 25,49.4482759 C25,61.3509644 34.6490356,71 46.5517241,71 C58.4544127,71 68.1034483,61.3509644 68.1034483,49.4482759 L46.5517241,49.4482759 L46.5517241,27.8965517 Z" id="Layer-6" fill="#FFFFFF"></path>
                    <path d="M53.4482759,42.5517241 L75,42.5517241 C75,30.6490356 65.3509644,21 53.4482759,21 L53.4482759,42.5517241 L53.4482759,42.5517241 Z" id="Layer-7" fill="#FFFFFF"></path>
                </g>
            </g>
        </g>
    </g>
</svg>