<?xml version="1.0" encoding="UTF-8"?>
<svg width="104px" height="104px" viewBox="0 0 104 104" version="1.1" xmlns="http://www.w3.org/2000/svg" xmlns:xlink="http://www.w3.org/1999/xlink">
    <!-- Generator: Sketch 46 (44423) - http://www.bohemiancoding.com/sketch -->
    <title>communications-50</title>
    <desc>Created with Sketch.</desc>
    <defs></defs>
    <g id="ALL" stroke="none" stroke-width="1" fill="none" fill-rule="evenodd" stroke-linecap="round" stroke-linejoin="round">
        <g id="Secondary" transform="translate(-4324.000000, -5041.000000)" stroke="#868E96" stroke-width="3.5">
            <g id="communications-50" transform="translate(4326.000000, 5043.000000)">
                <path d="M28.0149678,42.8956218 C29.3274702,39.9244872 28.6824359,35.5211554 26.5597083,33.0435395 L17.0539221,21.9485285 C14.9377021,19.4785083 11.3582205,19.3401075 9.06962183,21.6287063 L2.52131402,28.1770141 C-1.50701485,32.2053429 0.0142042229,39.9170151 2.10272922,45.1664137 C2.10272922,45.1664137 4.74942368,53.9687073 25.3903582,74.6096418 C46.0312927,95.2505763 54.8335863,97.8972708 54.8335863,97.8972708 C60.0829849,99.9857958 67.7946571,101.507015 71.8229859,97.478686 L78.3712937,90.9303782 C80.6598925,88.6417795 80.5214917,85.0622979 78.0514715,82.9460779 L66.9564605,73.4402917 C64.4788446,71.3175641 60.0755128,70.6725298 57.1043782,71.9850322 C57.1043782,71.9850322 49.034893,75.9276172 46.73672,73.6294442 L36.5536378,63.4463622 L26.0325071,52.9252313 C23.7343341,50.6270583 28.0149678,42.8956218 28.0149678,42.8956218 Z" id="Layer-1"></path>
                <path d="M50.027054,14.6196118 C50.0091337,14.7414935 50,14.8682419 50,15 C50,37.4999998 75,47.5 75,47.5 C75,47.5 100,37.4999998 100,15 C100,14.8679415 99.9908802,14.7409553 99.9729907,14.6188952 C99.9909076,14.3315657 100,14.0418447 100,13.75 C100,6.15608469 93.8439153,0 86.25,0 C81.5996056,0 77.4884185,2.30862112 75,5.84230216 C72.5115815,2.30862112 68.4003944,0 63.75,0 C56.1560847,0 50,6.15608469 50,13.75 C50,14.0420873 50.0091075,14.3320474 50.027054,14.6196118 L50.027054,14.6196118 Z" id="Layer-2"></path>
            </g>
        </g>
    </g>
</svg>