<?xml version="1.0" encoding="UTF-8"?>
<svg width="80px" height="104px" viewBox="0 0 80 104" version="1.1" xmlns="http://www.w3.org/2000/svg" xmlns:xlink="http://www.w3.org/1999/xlink">
    <!-- Generator: Sketch 46 (44423) - http://www.bohemiancoding.com/sketch -->
    <title>devices-60</title>
    <desc>Created with Sketch.</desc>
    <defs></defs>
    <g id="ALL" stroke="none" stroke-width="1" fill="none" fill-rule="evenodd" stroke-linecap="round" stroke-linejoin="round">
        <g id="Secondary" transform="translate(-2867.000000, -4137.000000)" stroke="#868E96" stroke-width="3.5">
            <g id="devices-60" transform="translate(2868.000000, 4139.000000)">
                <rect id="Layer-1" x="16.645075" y="0" width="20" height="6" rx="3"></rect>
                <circle id="Layer-2" cx="27" cy="74.1267405" r="26.1267405"></circle>
                <path d="M33.645075,48.8525643 L33.645075,6 L19.645075,6 L19.645075,49.0495094 C21.9780039,48.3664038 24.4462128,48 27,48 C29.2962573,48 31.523326,48.2962318 33.645075,48.8525643 L33.645075,48.8525643 Z" id="Layer-3"></path>
                <path d="M46.773064,56.15925 L47.3559877,55.5763263 C47.3559877,55.5763263 63.368686,36.9014365 63.3688381,36.9012442 L62.9349189,36.467325 C61.7633822,35.2957882 61.7606481,33.3935593 62.932221,32.2219864 C64.10141,31.0527974 66.0009271,31.0480517 67.1695865,32.2167112 L75.6654183,40.712543 C76.8248006,41.8719253 76.831716,43.7783356 75.6601431,44.9499085 C74.4909541,46.1190974 72.5876275,46.1204177 71.4142688,44.9475328 L70.9802401,44.5136794 L52.3057363,60.5260726 L50.8450881,61.9867209 C49.7545907,59.8583883 48.3806433,57.8992919 46.773064,56.15925 L46.773064,56.15925 Z" id="Layer-4"></path>
                <path d="M27.0080467,94.0663752 C37.505901,94.0663752 46.0160934,86.9779999 46.0160934,78.2340457 C46.0160938,78.2340457 32.4351788,80.149696 24.7895877,73.1851402 C17.1439967,66.2205845 8,67.8509967 8,78.2340457 C8,86.9779999 16.5101924,94.0663752 27.0080467,94.0663752 Z" id="Layer-5"></path>
                <circle id="Layer-6" cx="35.6007333" cy="66.8992667" r="4.28250854"></circle>
            </g>
        </g>
    </g>
</svg>