<?xml version="1.0" encoding="UTF-8"?>
<svg width="67px" height="103px" viewBox="0 0 67 103" version="1.1" xmlns="http://www.w3.org/2000/svg" xmlns:xlink="http://www.w3.org/1999/xlink">
    <!-- Generator: Sketch 46 (44423) - http://www.bohemiancoding.com/sketch -->
    <title>healthcare-40</title>
    <desc>Created with Sketch.</desc>
    <defs></defs>
    <g id="ALL" stroke="none" stroke-width="1" fill="none" fill-rule="evenodd" stroke-linecap="round" stroke-linejoin="round">
        <g id="Secondary" transform="translate(-8928.000000, -7191.000000)" stroke="#868E96" stroke-width="3.5">
            <g id="healthcare-40" transform="translate(8930.000000, 7193.000000)">
                <path d="M56.3826653,92.422704 L56.3826653,36.3690816 C56.3826653,23.3800317 48.3558872,18.2353577 41.0014384,13.9379133 L41.0014384,10.4563605 C40.9983431,3.57733543 36.7149599,0 31.6202115,0 C26.5254631,9.94262104e-16 22.2420798,3.57733543 22.2389845,10.4563605 L22.2389845,13.9379133 C14.8845357,18.2353577 6.85775759,22.742051 6.85775759,36.3690816 L6.85775759,92.422704 L3.76245086,92.422704 C2.05384154,92.422704 0.667144123,93.8178164 0.667144123,95.5367942 C0.667144123,97.2557719 2.05384154,98.6508843 3.76245086,98.6508843 L59.4779721,98.6508843 C61.1865814,98.6508843 62.5732788,97.2557719 62.5732788,95.5367942 C62.5732788,93.8178164 61.1865814,92.422704 59.4779721,92.422704 L56.3826653,92.422704 Z" id="Layer-1"></path>
                <path d="M48.9930577,42.1960541 C48.9930577,27.8548686 45.2245689,25.2287368 37.8701201,20.9312924" id="Layer-2"></path>
                <path d="M49,49.6440288 L49,73.7440292" id="Layer-3"></path>
                <path d="M49.0254471,80.8459476 L49.0254471,84.945948" id="Layer-4"></path>
            </g>
        </g>
    </g>
</svg>