<?xml version="1.0" encoding="UTF-8"?>
<svg width="74px" height="104px" viewBox="0 0 74 104" version="1.1" xmlns="http://www.w3.org/2000/svg" xmlns:xlink="http://www.w3.org/1999/xlink">
    <!-- Generator: Sketch 47 (45396) - http://www.bohemiancoding.com/sketch -->
    <title>baby-40</title>
    <desc>Created with Sketch.</desc>
    <defs></defs>
    <g id="ALL" stroke="none" stroke-width="1" fill="none" fill-rule="evenodd" stroke-linecap="round" fill-opacity="0" stroke-linejoin="round">
        <g id="Primary" transform="translate(-3070.000000, -8712.000000)" stroke="#343A40" stroke-width="3.5" fill="#DBECFF">
            <g id="baby-40" transform="translate(3072.000000, 8714.000000)">
                <path d="M25.2223866,5.72291084 C27.0400947,2.32550057 30.7361394,0 35,0 C39.2638606,0 42.9599053,2.32550057 44.7776134,5.72291084 C48.2964639,3.92226788 52.7697584,4.15404328 56.2862215,6.6844052 C59.6517892,9.1061864 61.266319,13.004203 60.8360911,16.7280004 C64.6966715,17.3626461 68.1140368,20.1370635 69.4418298,24.1844052 C70.7338088,28.1225796 69.710006,32.2374473 67.1235191,35 C69.710006,37.7625527 70.7338088,41.8774204 69.4418298,45.8155948 C68.1140368,49.8629365 64.6966715,52.6373539 60.8360911,53.2719996 C61.266319,56.995797 59.6517892,60.8938136 56.2862215,63.3155948 C52.7697584,65.8459567 48.2964639,66.0777321 44.7776134,64.2770892 C42.9599053,67.6744994 39.2638606,70 35,70 C30.7361394,70 27.0400947,67.6744994 25.2223866,64.2770892 C21.7035361,66.0777321 17.2302416,65.8459567 13.7137785,63.3155948 C10.3482108,60.8938136 8.73368095,56.995797 9.16390894,53.2719996 C5.3033285,52.6373539 1.88596318,49.8629365 0.558170163,45.8155948 C-0.733808804,41.8774204 0.289993988,37.7625527 2.87648095,35 C0.289993988,32.2374473 -0.733808804,28.1225796 0.558170163,24.1844052 C1.88596318,20.1370635 5.3033285,17.3626461 9.16390894,16.7280004 C8.73368095,13.004203 10.3482108,9.1061864 13.7137785,6.6844052 C17.2302416,4.15404328 21.7035361,3.92226788 25.2223866,5.72291084 L25.2223866,5.72291084 Z M35.3388578,56.7567568 C47.4711168,56.7567568 57.3062559,47.015925 57.3062559,35 C57.3062559,22.984075 47.4711168,13.2432432 35.3388578,13.2432432 C23.2065989,13.2432432 13.3714597,22.984075 13.3714597,35 C13.3714597,47.015925 23.2065989,56.7567568 35.3388578,56.7567568 Z" id="Layer-1"></path>
                <path d="M41.3619307,68.0576479 L42.590444,92.013658 C42.8166355,96.4243929 39.4092877,100 35,100 C30.581722,100 27.1836786,96.4182679 27.409556,92.013658 L28.6380693,68.0576479 C30.4327654,69.2806606 32.6285624,70 35,70 C37.3714376,70 39.5672346,69.2806606 41.3619307,68.0576479 Z" id="Layer-2"></path>
                <circle id="Layer-3" cx="35.5" cy="35.5" r="13.5"></circle>
                <rect id="Layer-4" x="49" y="33" width="8" height="5"></rect>
                <rect id="Layer-5" x="14" y="33" width="8" height="5"></rect>
            </g>
        </g>
    </g>
</svg>