<?xml version="1.0" encoding="UTF-8"?>
<svg width="85px" height="104px" viewBox="0 0 85 104" version="1.1" xmlns="http://www.w3.org/2000/svg" xmlns:xlink="http://www.w3.org/1999/xlink">
    <!-- Generator: Sketch 47 (45396) - http://www.bohemiancoding.com/sketch -->
    <title>business-29</title>
    <desc>Created with Sketch.</desc>
    <defs></defs>
    <g id="ALL" stroke="none" stroke-width="1" fill="none" fill-rule="evenodd" stroke-linecap="round" fill-opacity="0" stroke-linejoin="round">
        <g id="Primary" transform="translate(-3419.000000, -5351.000000)" stroke="#343A40" fill-rule="nonzero" stroke-width="3.5" fill="#DBECFF">
            <g id="business-29" transform="translate(3420.000000, 5353.000000)">
                <polygon id="Layer-1" points="36.1534091 67.9318182 36.1534091 57.9772727 4.59090909 57.9772727 4.59090909 47.75 36.1534091 47.75 36.1534091 46.2623829 0.730709826 6.80640599 8.45110836 0.0117758242 41.3181818 36.6211398 74.1852553 0.0117758242 81.9056538 6.80640599 46.4829545 46.2623829 46.4829545 47.75 78.0454545 47.75 78.0454545 57.9772727 46.4829545 57.9772727 46.4829545 67.9318182 78.0454545 67.9318182 78.0454545 78.1590909 46.4829545 78.1590909 46.4829545 94.3181818 46.4829545 99.4318182 36.1534091 99.4318182 36.1534091 94.3181818 36.1534091 78.1590909 4.59090909 78.1590909 4.59090909 67.9318182 36.1534091 67.9318182"></polygon>
            </g>
        </g>
    </g>
</svg>