<?xml version="1.0" encoding="UTF-8"?>
<svg width="104px" height="104px" viewBox="0 0 104 104" version="1.1" xmlns="http://www.w3.org/2000/svg" xmlns:xlink="http://www.w3.org/1999/xlink">
    <!-- Generator: Sketch 47 (45396) - http://www.bohemiancoding.com/sketch -->
    <title>gaming-50</title>
    <desc>Created with Sketch.</desc>
    <defs></defs>
    <g id="ALL" stroke="none" stroke-width="1" fill="none" fill-rule="evenodd" stroke-linecap="round" fill-opacity="0" stroke-linejoin="round">
        <g id="Primary" transform="translate(-5506.000000, -5962.000000)" stroke="#343A40" stroke-width="3.5" fill="#DBECFF">
            <g id="gaming-50" transform="translate(5508.000000, 5964.000000)">
                <path d="M15.9766946,68.249438 C14.2812357,66.0116607 11.69666,64.7272221 8.88659393,64.7272221 C6.51466413,64.7272221 4.28402256,65.6505907 2.60426241,67.3303509 C0.786068326,69.1471178 -0.155853255,71.661763 0.0211138296,74.2263586 C0.198080915,76.7909542 1.47395651,79.1514667 3.52192238,80.702783 L27.7235984,99.0374293 C28.5484934,99.6625228 29.5303753,99.9921953 30.5636347,99.9921953 C31.8195301,99.9921953 33.0012136,99.5026815 33.8889033,98.6149918 C35.5415475,96.9637747 35.7227961,94.3121227 34.3113409,92.451114 L15.9766946,68.249438 L15.9766946,68.249438 Z" id="Layer-1"></path>
                <circle id="Layer-2" cx="9.21751343" cy="73.9447356" r="3.9503629"></circle>
                <path d="M89.3163188,63.8241864 C92.0975368,63.4407093 94.833343,64.3600451 96.8203598,66.3470619 C98.4975674,68.0242695 99.421949,70.2544915 99.421949,72.6300311 C99.4229582,75.2003367 98.3108746,77.6444985 96.3722971,79.3328068 C94.4337195,81.0211151 91.8624048,81.7880692 89.317328,81.436885 L59.239606,77.2882685 C58.2143094,77.1469874 57.2869003,76.6858058 56.5562756,75.955181 C55.6682234,75.0671288 55.1787856,73.885414 55.1787856,72.6300311 C55.1777764,70.2938484 56.9246154,68.2906852 59.2385968,67.9728029 L89.3163188,63.8241864 L89.3163188,63.8241864 L89.3163188,63.8241864 L89.3163188,63.8241864 Z" id="Layer-3"></path>
                <path d="M87.2752697,75.4241611 C85.732557,73.8814484 85.732557,71.380217 87.2752697,69.8375043 C88.8179824,68.2947917 91.3192138,68.2947917 92.8619265,69.8375043 C94.4046392,71.380217 94.4046392,73.8814484 92.8619265,75.4241611 C91.3192138,76.9668738 88.8179824,76.9668738 87.2752697,75.4241611 L87.2752697,75.4241611 L87.2752697,75.4241611 Z" id="Layer-4"></path>
                <circle id="Layer-5" cx="29.7033675" cy="10.1816245" r="10.1575405"></circle>
                <path d="M47.8170276,32.5388146 L29.578201,44.8410584" id="Layer-6" transform="translate(38.697614, 38.689936) scale(-1, 1) rotate(-30.000000) translate(-38.697614, -38.689936) "></path>
                <path d="M43.8345259,29.1104215 L41.3474132,30.7880002" id="Layer-7" transform="translate(42.590970, 29.949211) scale(-1, 1) rotate(-30.000000) translate(-42.590970, -29.949211) "></path>
                <path d="M58.7033392,40.0480175 L42.1225878,51.2318756" id="Layer-8" transform="translate(50.412964, 45.639947) scale(-1, 1) rotate(-30.000000) translate(-50.412964, -45.639947) "></path>
            </g>
        </g>
    </g>
</svg>