<?xml version="1.0" encoding="UTF-8"?>
<svg width="89px" height="104px" viewBox="0 0 89 104" version="1.1" xmlns="http://www.w3.org/2000/svg" xmlns:xlink="http://www.w3.org/1999/xlink">
    <!-- Generator: Sketch 47 (45396) - http://www.bohemiancoding.com/sketch -->
    <title>gestures-50</title>
    <desc>Created with Sketch.</desc>
    <defs></defs>
    <g id="ALL" stroke="none" stroke-width="1" fill="none" fill-rule="evenodd" stroke-linecap="round" fill-opacity="0" stroke-linejoin="round">
        <g id="Primary" transform="translate(-4279.000000, -9624.000000)" stroke="#343A40" stroke-width="3.5" fill="#DBECFF">
            <g id="gestures-50" transform="translate(4281.000000, 9626.000000)">
                <path d="M22.1006878,4.40002441 C22.1006878,4.40002441 29.0898585,0.14029059 43.2340598,0.14029059 C66.0387576,0.14029059 86.0817905,16.7998217 84.5916166,45.7162108" id="Layer-1"></path>
                <path d="M0.0808224749,78.3016136 L0.0808224749,42.3800732 C0.0808224749,16.5634368 16.0653042,7.99823249 16.0653042,7.99823249" id="Layer-2"></path>
                <path d="M13.7832832,57.5553121 L13.7832832,42.2453277 C13.7832832,28.328052 25.0003786,13.5647654 42.0181765,13.7652229 C57.3591231,13.9459282 64.0820849,25.9218502 64.0820849,25.9218502" id="Layer-3"></path>
                <path d="M68.4871371,32.3949088 C69.7141573,35.3965946 70.3364302,38.5781111 70.3364302,41.8508952 L70.3364302,88.7240669" id="Layer-4"></path>
                <path d="M41.650597,41.6811882 L41.650597,78.7039411" id="Layer-5"></path>
                <path d="M41.650597,85.7823619 L41.650597,99.6658942" id="Layer-6"></path>
                <path d="M84.4581551,52.4607607 L84.4581551,74.4430202" id="Layer-7"></path>
                <path d="M13.7832832,64.5789069 L13.7832832,90.0320495" id="Layer-8"></path>
                <path d="M55.6473476,53.2202073 L55.6473476,99.4986485" id="Layer-9"></path>
                <path d="M55.6220222,45.0896849 C55.6220222,45.0896849 56.8807269,27.6928854 41.650597,27.6928854 C26.4204672,27.6928854 27.6791718,45.0896849 27.6791718,45.0896849 L27.6791718,99.6658942" id="Layer-10"></path>
            </g>
        </g>
    </g>
</svg>